<svg xmlns="http://www.w3.org/2000/svg" width="349.648" height="342.165" viewBox="0 0 349.648 342.165"><g transform="translate(-721.723 -1892.434)"><path d="M872.446,1999.523a84.173,84.173,0,1,0,64.173,5.653A83.621,83.621,0,0,0,872.446,1999.523Z" fill="#ffb1bd"/><path d="M897.615,2167.312h-.005a87.249,87.249,0,1,1,.005,0Zm.194-168.426a80.928,80.928,0,0,0-.2,161.855h.005a80.928,80.928,0,0,0,.194-161.855Z" fill="#010101"/><path d="M837.292,2061.13l-1.253-3.982a9.656,9.656,0,0,0,6.313-12.11l3.982-1.253a13.83,13.83,0,0,1-9.042,17.345Z"/><path d="M937.764,2029.517a13.831,13.831,0,0,1-17.345-9.043l3.982-1.253a9.658,9.658,0,0,0,12.11,6.314Z"/><path d="M928.184,2026.737c-9.049,9.065-22.909,17.272-39.434,22.472s-32.586,6.407-45.2,4.156c16.816,15.623,35.48,22.686,52.005,17.486s27.782-21.677,32.624-44.114Z"/><path d="M896.187,2072.842c-16.731,5.265-35.928-1.109-54.053-17.948a2.087,2.087,0,0,1,1.787-3.583c12.836,2.291,28.534.837,44.2-4.093s29.371-12.727,38.582-21.955a2.087,2.087,0,0,1,3.518,1.914C925.006,2051.36,912.918,2067.578,896.187,2072.842ZM850.114,2056.3c15.38,12.418,31.114,16.877,44.82,12.564s24.051-16.977,29.55-35.964c-9.294,7.632-21.506,14.025-35.107,18.3S862.1,2057.231,850.114,2056.3Z"/><path d="M884.594,2081.257a13.584,13.584,0,1,0,25.915-8.154l-3.218-10.228a7.895,7.895,0,0,0-14.6-1.148,7.894,7.894,0,0,0-11.313,9.3Z" fill="#ec0044"/><path d="M902.255,2092.129a15.689,15.689,0,0,1-19.652-10.245l-3.218-10.228a10,10,0,0,1,6.529-12.524,9.879,9.879,0,0,1,5.955-.011,9.883,9.883,0,0,1,4.889-3.4,10,10,0,0,1,12.524,6.529l3.218,10.228A15.688,15.688,0,0,1,902.255,2092.129Zm-15.088-29.015a5.819,5.819,0,0,0-3.8,7.289l3.218,10.228a11.5,11.5,0,1,0,21.933-6.9L905.3,2063.5a5.819,5.819,0,0,0-7.289-3.8,5.758,5.758,0,0,0-3.453,2.956l-.966,1.939-1.9-1.037A5.761,5.761,0,0,0,887.167,2063.114Z"/><rect width="4.174" height="14.369" transform="translate(890.699 2062.354) rotate(-17.466)"/><path d="M931.51,2012.774a2.535,2.535,0,1,1-3.179-1.658A2.536,2.536,0,0,1,931.51,2012.774Z"/><path d="M813.43,2083.368c-31.263,17.688-49.25,34.856-45.563,44.738,6.02,16.134,68.783,7.617,140.185-19.024s124.4-61.316,118.384-77.45c-3.635-9.744-27.966-10.5-62.4-3.7l2.335,1.939c17.533-1.913,28.047-.065,30.237,5.805,4.739,12.7-36.987,40-93.2,60.971s-105.618,27.678-110.357,14.976c-2.253-6.037,5.38-14.954,20.688-25.34Z" fill="#ffcc40"/><path d="M792.124,2139.558c-15.588,0-24.785-3.466-27.336-10.3-6.156-16.5,30.835-39.589,47.025-48.746a3.284,3.284,0,0,1,4.884,2.507l.314,2.919a3.287,3.287,0,0,1-1.421,3.07c-16.161,10.963-20.647,18.279-19.455,21.472.773,2.075,5.388,4.292,16.018,4.292,20.541,0,55.07-8.123,90.111-21.2,26.965-10.062,51.4-21.873,68.8-33.258,19.812-12.962,23.442-20.862,22.461-23.487-1.041-2.791-6.6-4.393-15.254-4.393a108.345,108.345,0,0,0-11.547.706,3.29,3.29,0,0,1-2.456-.739l-2.335-1.94a3.286,3.286,0,0,1,1.463-5.75c15.223-3.007,28.27-4.531,38.777-4.531,15.59,0,24.786,3.465,27.337,10.3,7.825,20.974-56.149,57.736-120.315,81.678C863.221,2129.315,819.455,2139.558,792.124,2139.558Zm.744-39.266c-17.111,12.394-23.653,22.03-21.922,26.666.675,1.813,4.093,6.028,21.178,6.028,26.192,0,70.173-10.339,114.779-26.983,34.311-12.8,65.412-27.838,87.576-42.336,23.944-15.666,30.618-26.226,28.879-30.887-.676-1.813-4.093-6.027-21.18-6.027q-5.289,0-11.5.542c4.746,1.386,7.72,3.788,9.007,7.236,2.968,7.954-5.452,18.479-25.022,31.282-17.8,11.645-42.7,23.691-70.1,33.917-36.268,13.532-70.814,21.611-92.409,21.611-12.594,0-20.055-2.883-22.176-8.565C788.593,2109.066,789.541,2104.925,792.868,2100.292Z" fill="#010101"/><path d="M977.566,2052.6c34.96,4.864,57.855,13.583,58.093,24.016.392,17.216-61.054,32.581-137.244,34.317s-138.273-10.811-138.665-28.028c-.234-10.27,21.537-19.88,55.316-26.333l-.146,2.411c-16.313,4.673-26.109,10.5-25.969,16.621.309,13.553,49.182,23.432,109.162,22.064s108.351-13.462,108.042-27.015c-.143-6.307-10.626-11.778-28.028-15.73Z" fill="#ffd893"/><path d="M884.4,2114.382c-61.275,0-127.448-9.824-127.938-31.4-.192-8.431,9.712-20.415,57.985-29.638a3.285,3.285,0,0,1,3.9,3.429l-.147,2.411a3.287,3.287,0,0,1-2.375,2.959c-17.522,5.02-23.658,10.35-23.589,13.387.178,7.757,34.055,18.978,94.845,18.98h.011c3.609,0,7.292-.043,10.946-.125,28.773-.656,55.732-3.8,75.908-8.842,22.969-5.742,28.989-12.014,28.926-14.813-.074-3.161-6.788-8.358-25.473-12.6a3.282,3.282,0,0,1-2.466-2.434l-.56-2.323a3.285,3.285,0,0,1,3.647-4.024c22.6,3.143,60.553,10.857,60.924,27.2.236,10.31-14.026,19.134-42.39,26.226-26.153,6.539-60.978,10.607-98.062,11.45C893.8,2114.327,889.057,2114.382,884.4,2114.382ZM791.821,2065.5c-19.853,5.938-28.895,12.527-28.786,17.334.239,10.473,42.548,24.979,121.369,24.977,4.6,0,9.293-.055,13.936-.159,36.612-.834,70.925-4.832,96.618-11.256,27.76-6.943,37.529-14.729,37.416-19.7-.11-4.835-9.438-10.985-29.508-16,4.291,2.948,6.492,6.249,6.574,9.886.194,8.487-11.212,15.667-33.9,21.34-20.637,5.16-48.108,8.369-77.353,9.034-3.7.085-7.438.129-11.1.129h-.011c-26.873,0-51.817-2.277-70.234-6.41-20.507-4.6-31-10.99-31.18-18.991Q785.542,2070.231,791.821,2065.5Z" fill="#010101"/><path d="M733.061,2123.151l4.215-1.684,3.984,9.964,4.641-1.857-3.785-9.473,4.214-1.684,3.786,9.474,8.428-3.37,1.917,4.8-21.5,8.593Z"/><path d="M726.326,2096.892l4.489-1.017,2.545,11.243,4.652-1.052-2.287-10.113,4.3-.972,2.29,10.113,4.683-1.062-2.627-11.6,4.459-1.007,3.769,16.636-22.585,5.113Z"/><path d="M726.19,2087.633a24.209,24.209,0,0,1-4.247-12.594c-.307-7.713,3.927-14.676,12.366-15.011,7.249-.289,13.139,5.278,13.439,12.825.314,7.91-3.785,14.074-10.336,14.334-3.707.148-5.9-2.35-6.1-5.89l-3.905.154a20.275,20.275,0,0,0,3.135,5.511Zm13.736-15.563a31.822,31.822,0,0,0-2.7,4.616l6.156-.245a13.549,13.549,0,0,0,.321-3.594,8.542,8.542,0,0,0-9.22-8.452c-5.859.233-8.788,4.925-8.569,10.421a13.512,13.512,0,0,0,.258,2.31l6.254-.249a56.385,56.385,0,0,1,3.677-6.777Zm1.412,8.828-5.792.231a1.69,1.69,0,0,0,1.794,1.785A5.647,5.647,0,0,0,741.338,2080.9Z"/><path d="M726.095,2087.856l-.074-.1a24.429,24.429,0,0,1-4.284-12.7c-.28-7.081,3.53-14.865,12.564-15.225.183-.006.366-.011.546-.011,7.176,0,12.811,5.6,13.106,13.034a16.577,16.577,0,0,1-2.631,10.163,10,10,0,0,1-7.9,4.384c-.107,0-.213.007-.317.007-3.419,0-5.7-2.251-5.985-5.888l-3.422.134a20.193,20.193,0,0,0,3,5.187l.229.278Zm8.752-27.634c-.175,0-.351,0-.529.011-6.341.252-12.563,4.926-12.17,14.8a24.018,24.018,0,0,0,4.136,12.38l3.873-.6a20.736,20.736,0,0,1-2.945-5.291l-.1-.265,4.389-.173.012.2c.21,3.626,2.494,5.856,5.889,5.7a9.473,9.473,0,0,0,7.583-4.212,16.17,16.17,0,0,0,2.556-9.909C747.257,2065.656,741.8,2060.222,734.847,2060.222Zm2.41,22.9a1.9,1.9,0,0,1-1.916-1.984l-.008-.206,6.483-.258-.325.361a5.856,5.856,0,0,1-4.143,2.086Zm-1.489-1.8a1.457,1.457,0,0,0,1.489,1.385l.075,0a5.311,5.311,0,0,0,3.5-1.585Zm-9.76-3.988-.037-.169a14.025,14.025,0,0,1-.263-2.345,11.335,11.335,0,0,1,2.048-7.317,8.547,8.547,0,0,1,6.719-3.317,8.724,8.724,0,0,1,9.434,8.649,13.912,13.912,0,0,1-.326,3.648l-.035.153-6.643.264.134-.3a31.235,31.235,0,0,1,2.584-4.457l-3.448-1.778a56.512,56.512,0,0,0-3.561,6.593l-.052.117Zm8.89-12.746c-.134,0-.271,0-.407.008a8.152,8.152,0,0,0-6.408,3.156,10.92,10.92,0,0,0-1.964,7.051,13.91,13.91,0,0,0,.22,2.107l5.951-.237a57.184,57.184,0,0,1,3.642-6.689l.1-.156,4.2,2.165-.138.192a33.192,33.192,0,0,0-2.541,4.279l5.663-.226a13.443,13.443,0,0,0,.283-3.387A8.29,8.29,0,0,0,734.9,2064.592Z"/><path d="M739.272,2050.4a4.933,4.933,0,0,0,5.742-4.407,5.4,5.4,0,0,0-2.2-5.277l2.806-3.2a9.726,9.726,0,0,1,3.462,9.025c-.754,5.581-5.011,8.886-10.23,8.182a9.191,9.191,0,0,1-4.609-2.026,11.306,11.306,0,0,1-3.9.142c-4.858-.656-7.618-4.739-6.966-9.565a8.824,8.824,0,0,1,3.258-5.813l2.415,3.4a4.719,4.719,0,0,0-1.6,2.959,4.04,4.04,0,0,0,3.528,4.823l.43.025a9.958,9.958,0,0,1-.549-4.856c.43-3.183,2.719-5.284,5.906-4.852s4.887,3.166,4.458,6.35a8.467,8.467,0,0,1-2.445,4.987Zm-3.044-7.431c-.885-.121-1.484.6-1.6,1.488a5.4,5.4,0,0,0,.743,3.41,4.3,4.3,0,0,0,2.017-3.037A1.5,1.5,0,0,0,736.228,2042.967Z"/><path d="M740.235,2055.022a10.819,10.819,0,0,1-1.406-.1,9.392,9.392,0,0,1-4.637-2.009,11.528,11.528,0,0,1-3.869.125c-4.817-.651-7.822-4.771-7.143-9.8a8.981,8.981,0,0,1,3.337-5.949l.17-.129,2.647,3.732-.146.122a4.528,4.528,0,0,0-1.529,2.827,4.285,4.285,0,0,0,.637,3.011,3.79,3.79,0,0,0,2.715,1.581l.106.006a10.148,10.148,0,0,1-.456-4.661c.417-3.09,2.5-5.085,5.295-5.085a6.344,6.344,0,0,1,.842.057,5.189,5.189,0,0,1,3.727,2.23,6.245,6.245,0,0,1,.908,4.352,8.661,8.661,0,0,1-2.241,4.832l.122.026a6.008,6.008,0,0,0,.741.048h0a4.707,4.707,0,0,0,4.755-4.282,5.2,5.2,0,0,0-2.114-5.085l-.18-.133,3.079-3.51.152.115a10.012,10.012,0,0,1,3.543,9.216C748.606,2051.624,744.967,2055.02,740.235,2055.022Zm-5.934-2.548.077.064a8.942,8.942,0,0,0,4.506,1.98,10.176,10.176,0,0,0,1.351.093c4.588,0,7.983-3.18,8.647-8.1a9.635,9.635,0,0,0-3.231-8.716l-2.533,2.888a5.592,5.592,0,0,1,2.1,5.334,5.108,5.108,0,0,1-5.163,4.638h0a6.033,6.033,0,0,1-.81-.054l-.878-.178.273-.271a8.26,8.26,0,0,0,2.385-4.868,5.826,5.826,0,0,0-.84-4.066,4.791,4.791,0,0,0-3.442-2.053c-2.945-.406-5.248,1.516-5.674,4.675a9.737,9.737,0,0,0,.537,4.757l.111.3-.746-.043a4.2,4.2,0,0,1-3.013-1.757,4.693,4.693,0,0,1-.706-3.3,4.98,4.98,0,0,1,1.53-2.963l-2.183-3.075a8.606,8.606,0,0,0-3.012,5.544c-.658,4.868,2.136,8.706,6.79,9.335a11.106,11.106,0,0,0,3.827-.14Zm1-4.324-.109-.179a5.658,5.658,0,0,1-.77-3.543,1.621,1.621,0,1,1,3.167.427,4.477,4.477,0,0,1-2.11,3.183Zm.738-4.991a1.354,1.354,0,0,0-1.209,1.324,5.194,5.194,0,0,0,.608,3.088,4.037,4.037,0,0,0,1.744-2.771,1.318,1.318,0,0,0-.979-1.63A1.149,1.149,0,0,0,736.037,2043.159Z"/><path d="M754.121,2018.649l-7.41,1.582-.146.475-1.411,4.625,6.335,1.935-1.529,5-22.176-6.772,2.943-9.631q1.326-4.342,4.062-6.1a7.368,7.368,0,0,1,6.413-.638,8.987,8.987,0,0,1,4.064,2.4,7.12,7.12,0,0,1,1.827,3.936l8.762-2.485Zm-13.148,5.4,1.411-4.625a5.013,5.013,0,0,0,.016-3.509,3.681,3.681,0,0,0-2.491-1.991,3.556,3.556,0,0,0-3.116.278,5.128,5.128,0,0,0-1.916,2.929l-1.413,4.626Z"/><path d="M750.52,2000a8.123,8.123,0,0,1-1.227-.083,9.971,9.971,0,0,1-3.64-.979c-4.865-2.557-6.378-8.217-3.666-13.377s9.045-7.664,15.448-4.334l12.152,6.352-2.065,3.928a8.652,8.652,0,0,0-12.054,3.425l-.279.6a10.811,10.811,0,0,1,4.988.829,4.83,4.83,0,0,1,1.848,6.734c-1.464,2.784-4.327,4.385-7.726,2.6A7.229,7.229,0,0,1,750.52,2000Zm.3-4.333a12.206,12.206,0,0,1,8.057-8.709l-3.046-1.6c-4.692-2.466-8.723-.92-10.31,2.1a5.333,5.333,0,0,0,2.171,7.54,5.755,5.755,0,0,0,2.328.624Zm3.751,4.106a3.035,3.035,0,0,0,1.719,2.212,1.616,1.616,0,0,0,2.157-.473.994.994,0,0,0-.4-1.446A7.227,7.227,0,0,0,754.568,1999.775Z"/><path d="M757.113,2006.656a6.253,6.253,0,0,1-2.911-.78,7.35,7.35,0,0,1-3.86-5.668,8.485,8.485,0,0,1-1.078-.085,10.05,10.05,0,0,1-3.708-1c-4.96-2.608-6.538-8.351-3.751-13.655a11.034,11.034,0,0,1,9.768-5.953,12.851,12.851,0,0,1,5.957,1.532l12.335,6.449-2.261,4.3-.185-.107a8.407,8.407,0,0,0-4.283-1.183,8.547,8.547,0,0,0-7.486,4.526l-.14.3a10.436,10.436,0,0,1,4.763.854,4.84,4.84,0,0,1,2.41,2.91,5.44,5.44,0,0,1-.476,4.1A5.832,5.832,0,0,1,757.113,2006.656Zm-6.413-6.862.024.181a7.055,7.055,0,0,0,3.671,5.539,5.853,5.853,0,0,0,2.718.731,5.436,5.436,0,0,0,4.731-3.242,5.026,5.026,0,0,0,.446-3.79,4.445,4.445,0,0,0-2.207-2.666,10.419,10.419,0,0,0-4.751-.806l-.465,0,.415-.9a8.967,8.967,0,0,1,7.854-4.754,8.783,8.783,0,0,1,4.3,1.131l1.87-3.557-11.968-6.257a12.464,12.464,0,0,0-5.768-1.486,10.49,10.49,0,0,0-9.4,5.734c-2.676,5.092-1.171,10.6,3.581,13.1a9.662,9.662,0,0,0,3.566.956,8.246,8.246,0,0,0,1.111.082Zm6.475,2.605h0a2.262,2.262,0,0,1-.978-.227,3.233,3.233,0,0,1-1.829-2.356l-.048-.232.235-.015c.485-.029,1-.056,1.472-.056a4.507,4.507,0,0,1,2.111.374,1.2,1.2,0,0,1,.488,1.721A1.582,1.582,0,0,1,757.175,2002.4Zm-2.35-2.433a2.827,2.827,0,0,0,1.551,1.837,1.851,1.851,0,0,0,.8.186,1.182,1.182,0,0,0,1.088-.571.788.788,0,0,0-.316-1.168,4.154,4.154,0,0,0-1.92-.326C755.643,1999.924,755.229,1999.943,754.825,1999.966Zm-3.851-4.082-.969-.056a6.014,6.014,0,0,1-2.411-.648,5.508,5.508,0,0,1-2.257-7.819,6.541,6.541,0,0,1,5.945-3.433,9.987,9.987,0,0,1,4.642,1.248l3.467,1.824-.449.154a12.247,12.247,0,0,0-6.91,5.863,12.11,12.11,0,0,0-1.016,2.7Zm.308-11.545a6.137,6.137,0,0,0-5.583,3.215,5.115,5.115,0,0,0,2.086,7.263,5.578,5.578,0,0,0,2.24.6l.635.037a12.437,12.437,0,0,1,1.009-2.63,12.62,12.62,0,0,1,6.7-5.9l-2.636-1.388A9.576,9.576,0,0,0,751.282,1984.339Z"/><path d="M766.227,1960.252a7.12,7.12,0,0,0-2.62,2.058,6.948,6.948,0,0,0-.917,7.037,7.408,7.408,0,0,0,2.34,2.983,7.514,7.514,0,0,0,3.49,1.526,6.993,6.993,0,0,0,3.656-.4,6.8,6.8,0,0,0,2.962-2.232,7.5,7.5,0,0,0,1.346-2.959,10.017,10.017,0,0,0,.167-3.492l4.531-.39a13.932,13.932,0,0,1-.255,5.31,12.086,12.086,0,0,1-2.177,4.658,12.361,12.361,0,0,1-5.037,3.937,11.478,11.478,0,0,1-6.091.815,12.014,12.014,0,0,1-5.821-2.49,11.575,11.575,0,0,1-4.459-11.13,12.829,12.829,0,0,1,2.609-5.918,13.1,13.1,0,0,1,8.659-4.861l1.1,4.7A8.832,8.832,0,0,0,766.227,1960.252Z"/><path d="M771.084,1946.286l3.076-3.11,17.67,17.472-3.075,3.11Z"/><path d="M788.9,1929.553a12.95,12.95,0,1,1,15.971,20.389,12.973,12.973,0,0,1-20.725-12.6l2.105.329C784.686,1934.864,786.316,1931.57,788.9,1929.553Zm3.845-6.536-2.425-3.106-3.241,10.056,4.227-3.305Zm-2.672,21.971c3.279,4.035,8.251,4.858,12.27,1.718,3.993-3.121,4.483-8.251,1.3-12.323a8.87,8.87,0,0,0-5.3-3.341,7.614,7.614,0,0,1-2.72,7.547c-2.507,1.958-5.312,2.51-7.5,1.109A8.881,8.881,0,0,0,790.074,1944.988Zm1.172-12.434c-1.384,1.081-1.941,2.356-1.288,3.192s1.993.669,3.194-.268a3.752,3.752,0,0,0,1.314-4.181A5.779,5.779,0,0,0,791.246,1932.554Z"/><path d="M796.862,1952.966a13.293,13.293,0,0,1-12.917-15.657l.037-.2,1.9.3c-1.349-2.925.433-6.1,2.888-8.019a13.373,13.373,0,0,1,8.19-2.827A13.153,13.153,0,0,1,805,1950.1,13.135,13.135,0,0,1,796.862,1952.966Zm-12.548-15.386a12.764,12.764,0,1,0,22.615-5.761,12.56,12.56,0,0,0-9.965-4.844,12.959,12.959,0,0,0-7.937,2.74c-2.419,1.889-4.161,5.051-2.595,7.86l.205.368Zm12.76,11.247h0a9.257,9.257,0,0,1-7.159-3.709,9.055,9.055,0,0,1-1.993-5.414l-.013-.389.329.21c2.018,1.294,4.749.863,7.262-1.1a7.419,7.419,0,0,0,2.645-7.34l-.069-.306.308.059a9.02,9.02,0,0,1,5.423,3.416c3.252,4.162,2.689,9.466-1.336,12.612A8.759,8.759,0,0,1,797.074,1948.827Zm-8.72-8.757a8.6,8.6,0,0,0,1.88,4.789,8.856,8.856,0,0,0,6.84,3.557h0a8.348,8.348,0,0,0,5.143-1.872c3.9-3.048,4.422-8,1.266-12.035a8.651,8.651,0,0,0-4.874-3.2,7.854,7.854,0,0,1-2.856,7.442C793.231,1940.718,790.468,1941.211,788.354,1940.07Zm2.791-3.578h0a1.592,1.592,0,0,1-1.5-2.328,4.632,4.632,0,0,1,1.472-1.772,6.1,6.1,0,0,1,3.273-1.3l.223.007.044.135a3.938,3.938,0,0,1-1.381,4.408A3.615,3.615,0,0,1,791.145,1936.492Zm3.172-4.989a5.82,5.82,0,0,0-2.944,1.213,4.192,4.192,0,0,0-1.344,1.6,1.267,1.267,0,0,0,.091,1.3c.55.707,1.8.563,2.906-.3A3.54,3.54,0,0,0,794.317,1931.5Zm-7.638-.961,3.565-11.063,2.737,3.5-1.5,3.806-.043.035Zm3.719-10.2-2.917,9.05,3.656-2.858,1.375-3.484Z"/><path d="M830.118,1917.456c3.669,2.588,5.5,4.629,6.343,6.28,1.844,3.6.333,6.828-3.088,8.579s-6.936,1.134-8.765-2.434c-.86-1.68-1.386-3.942-1.449-8.935l-.032-3.259-1.177-.775a5.316,5.316,0,0,0-5.324-.511c-2.862,1.464-3.754,4.007-2.154,7.133l7.248,14.154-3.834,1.962-7.278-14.286c-2.793-5.455-.751-10.112,4.115-12.6a8.522,8.522,0,0,1,8.327-.021c-.035-2.029-.064-3.616-.064-3.616l4.276-2.188s.014,4.534.067,8.562Zm1.368,11.175a2.123,2.123,0,0,0,.977-3.034c-.951-1.858-2.817-3.246-4.814-4.754l-.329-.277.062.413c.085,2.563.2,4.963,1.086,6.7A2.151,2.151,0,0,0,831.486,1928.631Z"/><path d="M817.8,1939.926l-7.371-14.469a9.456,9.456,0,0,1-.824-7.576,9.823,9.823,0,0,1,5.029-5.3,8.629,8.629,0,0,1,8.209-.171l-.06-3.408,4.687-2.4v.336c0,.044.015,4.5.066,8.455l2.7,1.9c3.32,2.342,5.415,4.42,6.408,6.355a6.168,6.168,0,0,1,.438,5.15,7.238,7.238,0,0,1-3.616,3.7,8.077,8.077,0,0,1-3.685.966,5.89,5.89,0,0,1-5.356-3.489c-.836-1.632-1.4-3.791-1.471-9.025l-.03-3.151-1.087-.714a5.173,5.173,0,0,0-5.118-.5,4.913,4.913,0,0,0-2.647,2.823,5.286,5.286,0,0,0,.582,4.035L822,1937.778Zm1.121-28.058a8.866,8.866,0,0,0-4.1,1.075,9.418,9.418,0,0,0-4.83,5.076,9.071,9.071,0,0,0,.8,7.252l7.185,14.1,3.468-1.776-7.155-13.971a5.677,5.677,0,0,1-.608-4.345,5.292,5.292,0,0,1,2.852-3.064,5.58,5.58,0,0,1,5.529.523l1.269.836.034,3.367c.069,5.457.725,7.475,1.426,8.844a5.5,5.5,0,0,0,4.99,3.265,7.693,7.693,0,0,0,3.5-.921,6.842,6.842,0,0,0,3.421-3.488,5.781,5.781,0,0,0-.422-4.815c-.961-1.872-3.015-3.9-6.28-6.2l-2.874-2.02v-.1c-.043-3.358-.061-7.107-.066-8.23l-3.865,1.978.069,3.83-.305-.156A8.769,8.769,0,0,0,818.917,1911.868Zm11.465,17.247h0a2.348,2.348,0,0,1-2.1-1.341c-.874-1.712-1.015-3.988-1.108-6.788l-.141-.929.844.7c1.959,1.479,3.81,2.876,4.766,4.744a2.329,2.329,0,0,1-1.067,3.31A2.614,2.614,0,0,1,830.382,1929.115Zm-2.793-8.06c.093,2.723.236,4.917,1.062,6.533a1.921,1.921,0,0,0,1.731,1.117,2.22,2.22,0,0,0,1.011-.257,1.921,1.921,0,0,0,.887-2.758c-.912-1.783-2.727-3.153-4.649-4.6Z"/><path d="M855.722,1897.879l4.247-.959,5.473,24.233-4.25.959Z"/><path d="M888.678,1903.674c2.481,3.742,3.442,6.306,3.631,8.151.411,4.019-2.168,6.48-5.988,6.87s-6.875-1.46-7.282-5.446c-.191-1.878.14-4.176,1.892-8.849l1.153-3.047-.817-1.149a5.312,5.312,0,0,0-4.773-2.408c-3.2.327-4.951,2.371-4.6,5.862l1.616,15.815-4.281.438-1.6-15.949c-.623-6.1,2.971-9.693,8.4-10.248a8.524,8.524,0,0,1,7.765,3l1.252-3.39,4.774-.488s-1.63,4.228-3.043,8Zm-2.779,10.9a2.121,2.121,0,0,0,2.011-2.469c-.212-2.076-1.447-4.048-2.76-6.177l-.207-.377-.09.409c-.852,2.416-1.617,4.691-1.418,6.636A2.146,2.146,0,0,0,885.9,1914.578Z"/><path d="M869.05,1920.136l-.019-.2-1.6-15.95c-.6-5.857,2.692-9.87,8.588-10.471a8.7,8.7,0,0,1,7.711,2.819l1.179-3.195,5.234-.536-.121.313c-.016.042-1.617,4.2-3.005,7.9l1.831,2.749c2.243,3.385,3.441,6.08,3.663,8.243a6.169,6.169,0,0,1-1.46,4.956,7.24,7.24,0,0,1-4.711,2.139,9.833,9.833,0,0,1-1,.053c-3.708,0-6.14-2.125-6.5-5.682-.186-1.825.068-4.044,1.9-8.943l1.115-2.944-.752-1.06a5.087,5.087,0,0,0-4.586-2.323c-3.183.325-4.749,2.328-4.412,5.638l1.637,16.018Zm8.152-26.277c-.367,0-.751.021-1.139.059-5.644.578-8.794,4.417-8.223,10.023l1.579,15.745,3.871-.4-1.594-15.611c-.36-3.521,1.381-5.74,4.778-6.087a5.5,5.5,0,0,1,4.96,2.492l.881,1.238-1.192,3.15c-1.808,4.824-2.06,6.989-1.88,8.757.34,3.326,2.618,5.312,6.1,5.312.313,0,.637-.018.962-.05a6.839,6.839,0,0,0,4.451-2.009,5.781,5.781,0,0,0,1.354-4.636c-.215-2.1-1.392-4.73-3.6-8.058l-1.947-2.924.037-.1c1.178-3.143,2.521-6.643,2.925-7.689l-4.316.44-1.325,3.591-.228-.255A8.157,8.157,0,0,0,877.2,1893.859Zm8.42,20.939a2.323,2.323,0,0,1-2.391-2.177c-.2-1.919.5-4.088,1.428-6.726l.2-.919.536.962c1.288,2.091,2.506,4.064,2.717,6.15a2.324,2.324,0,0,1-2.193,2.694A2.748,2.748,0,0,1,885.622,1914.8Zm-.6-8.688c-.9,2.565-1.565,4.659-1.38,6.469a1.964,1.964,0,0,0,2.24,1.8,2.037,2.037,0,0,0,1.434-.717,2.061,2.061,0,0,0,.393-1.527c-.2-1.993-1.4-3.926-2.66-5.975Z"/><path d="M920.819,1898.823a5.511,5.511,0,0,0-2.591-.915c-1.685-.12-3.4.621-5.546,1.93L911.35,1918.6l-4.361-.31,1.114-15.69a9.082,9.082,0,0,1-4.78.921c-4.491-.319-7.213-2.636-6.981-5.937.215-3.007,3.33-5.242,7.984-4.912a11.166,11.166,0,0,1,6.891,3.012,11.794,11.794,0,0,1,6.953-2.095,7.142,7.142,0,0,1,2.962.84Zm-19.853-.913c-.053.76.862,1.421,2.713,1.553a6.008,6.008,0,0,0,3.9-1.117,5.591,5.591,0,0,0-3.639-1.587C902.088,1896.628,901.021,1897.149,900.966,1897.91Z"/><path d="M911.541,1918.818l-4.772-.338,1.1-15.534a9.553,9.553,0,0,1-4.563.78c-4.6-.328-7.413-2.744-7.172-6.158.217-3.023,3.214-5.134,7.289-5.134q.447,0,.914.032a11.361,11.361,0,0,1,6.906,2.957,11.887,11.887,0,0,1,6.939-2.041,7.314,7.314,0,0,1,3.046.867l.114.062-.008.132-.338,4.736-.289-.183a5.332,5.332,0,0,0-2.5-.882c-1.465-.108-2.97.415-5.335,1.845Zm-4.332-.72,3.95.281,1.325-18.661.09-.055c2.5-1.522,4.109-2.058,5.668-1.96a5.549,5.549,0,0,1,2.4.772l.279-3.93a6.976,6.976,0,0,0-2.761-.752,11.445,11.445,0,0,0-6.83,2.065l-.138.085-.116-.114a11.026,11.026,0,0,0-6.761-2.952c-.3-.023-.6-.032-.885-.032-3.851,0-6.679,1.954-6.878,4.752-.223,3.165,2.442,5.41,6.79,5.718a8.812,8.812,0,0,0,4.667-.895l.329-.18-.026.374Zm-3.146-18.417h0c-.133,0-.267,0-.4-.013-2.221-.159-2.955-1.019-2.9-1.773.069-.937,1.285-1.466,3.189-1.341a5.833,5.833,0,0,1,3.78,1.657l.142.164-.172.133A6.2,6.2,0,0,1,904.063,1899.681Zm-.679-2.737c-1.3,0-2.171.385-2.212.98-.05.7.941,1.221,2.522,1.334a5.822,5.822,0,0,0,3.573-.941,5.586,5.586,0,0,0-3.345-1.352C903.734,1896.95,903.554,1896.944,903.384,1896.944Z"/><path d="M947.1,1901.279l-1.122,4.465-11.136-2.8-1.163,4.625,10.02,2.516-1.074,4.272-10.019-2.515-1.17,4.659,11.491,2.885-1.114,4.432-16.482-4.137,5.64-22.457Z"/><path d="M965.352,1911.193a5.782,5.782,0,0,0-7.739,3.093l-6.188,13.992-4-1.768,6.23-14.082a10,10,0,0,1,13.418-4.964c5,2.211,7.629,7.393,5.312,12.633a10.729,10.729,0,0,1-4.95,5.378,20.41,20.41,0,0,1-5.049,7.651l-4.088-1.808a25.557,25.557,0,0,0,4.133-5.087,10.274,10.274,0,0,1-2.825-.815c-3.361-1.488-4.473-4.3-3.214-7.143,1.178-2.665,4.087-3.839,7.358-2.394a7.44,7.44,0,0,1,3.787,4.21,6.945,6.945,0,0,0,.98-1.559C969.841,1915.533,968.442,1912.56,965.352,1911.193Zm-5.1,8.825c-.281.636-.007,1.409,1.023,1.863a4.577,4.577,0,0,0,2.492.342,2.844,2.844,0,0,0-1.609-2.667C961.343,1919.195,960.563,1919.322,960.254,1920.018Z"/><path d="M962.436,1933.372l-4.5-1.99.219-.211a25.869,25.869,0,0,0,3.938-4.782,10.583,10.583,0,0,1-2.571-.786c-3.352-1.482-4.655-4.392-3.318-7.414a5.115,5.115,0,0,1,4.784-3.139,7.044,7.044,0,0,1,2.845.641,7.635,7.635,0,0,1,3.763,3.987,6.4,6.4,0,0,0,.732-1.232c1.242-2.812-.016-5.718-3.061-7.066a5.7,5.7,0,0,0-2.317-.5,5.636,5.636,0,0,0-5.152,3.489l-6.271,14.18-4.374-1.935.084-.188,6.23-14.081a10,10,0,0,1,9.263-6.018,10.879,10.879,0,0,1,4.425.949c5.389,2.384,7.668,7.812,5.417,12.9a11.042,11.042,0,0,1-4.969,5.441,20.876,20.876,0,0,1-5.07,7.648Zm-3.777-2.12,3.68,1.629a20.229,20.229,0,0,0,4.9-7.47l.027-.084.079-.037a10.584,10.584,0,0,0,4.851-5.276c2.155-4.875-.035-10.074-5.208-12.362a10.465,10.465,0,0,0-4.258-.915,9.6,9.6,0,0,0-8.888,5.774l-6.146,13.9,3.622,1.6,6.1-13.8a6.043,6.043,0,0,1,5.527-3.733,6.106,6.106,0,0,1,2.484.536c3.265,1.444,4.609,4.572,3.27,7.608a7.184,7.184,0,0,1-1.01,1.606l-.229.279-.122-.338a7.244,7.244,0,0,0-3.677-4.093,6.627,6.627,0,0,0-2.678-.607,4.715,4.715,0,0,0-4.409,2.9c-1.255,2.835-.062,5.468,3.109,6.872a10,10,0,0,0,2.768.8l.311.04-.16.27A25.467,25.467,0,0,1,958.659,1931.252Zm4.458-8.779a4.713,4.713,0,0,1-1.923-.4,2.139,2.139,0,0,1-1.1-.961,1.362,1.362,0,0,1-.024-1.173,1.542,1.542,0,0,1,2.177-.566,3.051,3.051,0,0,1,1.731,2.852l0,.18-.178.026A5.188,5.188,0,0,1,963.117,1922.473Zm-1.8-2.907a.894.894,0,0,0-.873.536.951.951,0,0,0,.016.825,1.755,1.755,0,0,0,.9.766,4.339,4.339,0,0,0,2.2.349,2.614,2.614,0,0,0-1.481-2.3A1.923,1.923,0,0,0,961.314,1919.566Z"/><path d="M990.5,1935.374l4.312,2.869-4.551,6.839q-4.988,1.3-10.041-2.068a11.71,11.71,0,0,1-5.228-7.537,12.271,12.271,0,0,1,9.546-14.22,11.668,11.668,0,0,1,8.967,1.831,12.529,12.529,0,0,1,5.366,7.511l-4.373,1.746a10.2,10.2,0,0,0-1.34-3.14,7.6,7.6,0,0,0-2.063-1.991,6.744,6.744,0,0,0-5.23-1.073,8.019,8.019,0,0,0-5.906,8.721,6.223,6.223,0,0,0,2.74,4.191,8.8,8.8,0,0,0,4.279,1.614Z"/><path d="M1002.672,1946.826a8.536,8.536,0,0,1,.433-1.152,9.969,9.969,0,0,1,1.98-3.2c3.846-3.929,9.7-3.756,13.864.321s4.752,10.864-.276,16.044l-9.567,9.818-3.17-3.1a8.652,8.652,0,0,0,.173-12.529l-.5-.439a10.852,10.852,0,0,1-2.224,4.542,4.833,4.833,0,0,1-6.979-.161c-2.249-2.2-2.961-5.4-.272-8.145A7.223,7.223,0,0,1,1002.672,1946.826Zm-.942,3.944a3.029,3.029,0,0,0-2.612,1.011,1.613,1.613,0,0,0-.163,2.2.99.99,0,0,0,1.5.03A7.234,7.234,0,0,0,1001.73,1950.77Zm5.009-2.418a12.21,12.21,0,0,1,6.03,10.217l2.411-2.46c3.706-3.786,3.379-8.091.943-10.476a5.332,5.332,0,0,0-7.845-.084,5.809,5.809,0,0,0-1.266,2.052Z"/><path d="M1009.109,1968.943l-3.47-3.4.157-.146a8.382,8.382,0,0,0,2.707-6.058,8.543,8.543,0,0,0-2.539-6.176l-.247-.218a10.519,10.519,0,0,1-2.182,4.319,4.849,4.849,0,0,1-3.486,1.471,5.433,5.433,0,0,1-3.783-1.63,6.505,6.505,0,0,1-2.049-4,5.6,5.6,0,0,1,1.775-4.438,7.44,7.44,0,0,1,6.534-2.074,9.11,9.11,0,0,1,.392-1.008,10.02,10.02,0,0,1,2.021-3.263,9.389,9.389,0,0,1,6.732-2.906,10.672,10.672,0,0,1,7.422,3.225c3.97,3.886,5.15,10.745-.273,16.333Zm-2.878-3.393,2.872,2.812,9.422-9.67c5.237-5.4,4.1-12.008.279-15.755a10.267,10.267,0,0,0-7.133-3.106,8.979,8.979,0,0,0-6.44,2.784,9.626,9.626,0,0,0-1.936,3.14,7.939,7.939,0,0,0-.425,1.127l-.05.175-.18-.029a7.079,7.079,0,0,0-6.356,1.932,5.2,5.2,0,0,0-1.658,4.114,6.1,6.1,0,0,0,1.929,3.741,5.021,5.021,0,0,0,3.494,1.512,4.444,4.444,0,0,0,3.194-1.35,10.73,10.73,0,0,0,2.173-4.455l.091-.31.738.653a8.957,8.957,0,0,1,2.668,6.48A8.771,8.771,0,0,1,1006.231,1965.55Zm6.352-6.5-.02-.475a11.992,11.992,0,0,0-5.93-10.048l-.144-.087.331-.911a6.034,6.034,0,0,1,1.31-2.125,5.552,5.552,0,0,1,3.96-1.742,6.009,6.009,0,0,1,4.178,1.823c3.217,3.151,1.96,7.8-.942,10.767Zm-5.593-10.788a12.381,12.381,0,0,1,5.957,9.83l2.087-2.129c3.815-3.9,3.164-8.012.945-10.186a5.6,5.6,0,0,0-3.889-1.7,5.074,5.074,0,0,0-3.666,1.619,5.626,5.626,0,0,0-1.218,1.973Zm-7.257,6.283a1.325,1.325,0,0,1-.923-.417,1.8,1.8,0,0,1,.156-2.487,3.209,3.209,0,0,1,2.782-1.077l.236.021-.053.229a7.318,7.318,0,0,1-1.33,3.341A1.206,1.206,0,0,1,999.733,1954.547Zm1.675-3.586a2.813,2.813,0,0,0-2.139.959,1.415,1.415,0,0,0-.171,1.916.8.8,0,0,0,1.208.035,6.638,6.638,0,0,0,1.168-2.91Z"/><path d="M1013.356,1972.933l18.632-13.743,3.055,4.142-14.929,11.011,5.838,7.913-3.706,2.734Z"/><path d="M1033.68,2006.109l3.506-4.164-4.341-8.638-5.431.329-2.462-4.893,25.164-1.492,2.236,4.452-16.214,19.3Zm11.406-13.524-7.313.425,2.593,5.159Zm9.264-2.219-2.118-4.218,7.12,1.114.373,5.537Z"/><path d="M1057.559,2026a1.244,1.244,0,0,0-.729,1.553,1.132,1.132,0,0,0,1.435.8c2.708-.774,3.406-3.763,2.594-6.6-1.391-4.874-6.033-7.133-10.907-5.742a8.4,8.4,0,0,0-5.991,10.877,11.484,11.484,0,0,0,4.854,6.744l-4.215,1.651c-2.2-1.575-4.013-4.883-4.7-7.3-2.255-7.9,1.943-14.2,8.886-16.181a12.635,12.635,0,0,1,15.979,8.909c1.467,5.13-.614,10.272-5.424,11.643a5.088,5.088,0,0,1-6.405-3.718,5.218,5.218,0,0,1,3.48-6.643Z"/><path d="M1044.571,2035.509l-.09-.064c-2.2-1.571-4.07-4.92-4.781-7.415-2.155-7.543,1.558-14.3,9.026-16.434a14.059,14.059,0,0,1,3.849-.549,12.741,12.741,0,0,1,12.385,9.6,10.823,10.823,0,0,1-.369,7.371,8.03,8.03,0,0,1-5.2,4.526,5.619,5.619,0,0,1-1.54.22,5.332,5.332,0,0,1-5.118-4.08,5.448,5.448,0,0,1,3.615-6.894l.2-.065,1.25,4.38-.151.076a1.036,1.036,0,0,0-.624,1.314.911.911,0,0,0,.9.695h0a.988.988,0,0,0,.284-.041,3.585,3.585,0,0,0,2.479-2.395,6.7,6.7,0,0,0-.025-3.948,7.965,7.965,0,0,0-7.894-6,10.1,10.1,0,0,0-2.76.4,8.206,8.206,0,0,0-5.849,10.622,11.309,11.309,0,0,0,4.762,6.625l.356.215Zm8-24.051a13.584,13.584,0,0,0-3.736.533c-7.236,2.066-10.832,8.615-8.744,15.926a14.83,14.83,0,0,0,4.535,7.129l3.732-1.462a11.875,11.875,0,0,1-4.6-6.645,8.6,8.6,0,0,1,6.132-11.13,10.473,10.473,0,0,1,2.872-.412,8.361,8.361,0,0,1,8.288,6.3,7.09,7.09,0,0,1,.019,4.194,3.979,3.979,0,0,1-2.754,2.657,1.449,1.449,0,0,1-.4.056h0a1.325,1.325,0,0,1-1.291-.993,1.428,1.428,0,0,1,.683-1.71l-1.041-3.647a4.983,4.983,0,0,0-3.144,6.321,4.927,4.927,0,0,0,4.723,3.782,5.225,5.225,0,0,0,1.428-.2,7.625,7.625,0,0,0,4.935-4.3,10.421,10.421,0,0,0,.348-7.091A12.34,12.34,0,0,0,1052.575,2011.458Z"/><path d="M1066.412,2062.309a5.542,5.542,0,0,0,.462-2.711c-.169-1.68-1.191-3.244-2.846-5.142l-18.725,1.87-.435-4.352,15.66-1.565a9.106,9.106,0,0,1-1.72-4.556c-.449-4.484,1.375-7.563,4.671-7.892,3-.3,5.734,2.39,6.2,7.038a11.165,11.165,0,0,1-1.8,7.307,11.805,11.805,0,0,1,3.247,6.5,7.13,7.13,0,0,1-.327,3.063Zm-2.473-19.732c-.755.075-1.253,1.091-1.068,2.936a6.03,6.03,0,0,0,1.761,3.655,5.582,5.582,0,0,0,.945-3.859C1065.393,2043.464,1064.7,2042.5,1063.939,2042.577Z"/><path d="M1066.091,2062.548l.131-.317a5.355,5.355,0,0,0,.448-2.612c-.146-1.444-.937-2.882-2.727-4.948l-18.825,1.88-.475-4.762.2-.019,15.3-1.529a9.51,9.51,0,0,1-1.543-4.367,9.252,9.252,0,0,1,.958-5.63,4.938,4.938,0,0,1,3.9-2.487c3.311-.324,5.976,2.74,6.422,7.222a11.334,11.334,0,0,1-1.744,7.311,11.8,11.8,0,0,1,3.192,6.5,7.3,7.3,0,0,1-.337,3.151l-.044.123Zm-1.978-8.307.069.08c1.9,2.179,2.74,3.7,2.9,5.256a5.58,5.58,0,0,1-.353,2.5l3.919-.392a6.966,6.966,0,0,0,.276-2.851,11.7,11.7,0,0,0-3.2-6.387l-.109-.122.093-.133a11.03,11.03,0,0,0,1.765-7.167c-.4-4.049-2.683-6.876-5.542-6.876a4.168,4.168,0,0,0-.431.021,4.547,4.547,0,0,0-3.584,2.288,9.805,9.805,0,0,0,.773,9.83l.232.293-15.829,1.582.4,3.944Zm.54-4.775-.16-.148a6.239,6.239,0,0,1-1.826-3.784,4.934,4.934,0,0,1,.194-2.229,1.317,1.317,0,0,1,1.057-.932.74.74,0,0,1,.1-.006c.905,0,1.578,1.119,1.758,2.921a5.81,5.81,0,0,1-.99,4.01Zm-.63-6.689c-.021,0-.042,0-.063,0a.951.951,0,0,0-.717.678,4.529,4.529,0,0,0-.168,2.034,5.885,5.885,0,0,0,1.533,3.366,5.564,5.564,0,0,0,.766-3.528C1065.2,2043.567,1064.568,2042.777,1064.023,2042.777Z"/><path d="M1069.571,2071.328l-.2,5.143-23.135-.882.2-5.144Z"/><path d="M1044.712,2105.7a13.2,13.2,0,0,1-2.3-10.144c1.325-7.3,7.461-11.8,15.019-10.432a12.893,12.893,0,0,1,9.657,7.608,13.468,13.468,0,0,1,2.358,1.1l-.709,3.909a7.109,7.109,0,0,0-.757-.474,11.423,11.423,0,0,1-.143,3.206c-.656,3.616-3.348,6.392-6.7,5.782-3.552-.645-4.966-4.165-4.3-7.815a7.468,7.468,0,0,1,5.27-6.042,9.01,9.01,0,0,0-5.439-3.04c-5.114-.929-9.307,1.776-10.266,7.054a9.455,9.455,0,0,0,1.729,7.348Zm19.165-9.546a3.746,3.746,0,0,0-3.206,3.02c-.3,1.66.178,2.724,1.221,2.913,1.077.194,2-.815,2.314-2.541A6.5,6.5,0,0,0,1063.877,2096.157Z"/><path d="M1062.056,2106.55a5.384,5.384,0,0,1-.958-.088c-3.381-.614-5.218-3.926-4.468-8.054a7.773,7.773,0,0,1,5.108-6.117,8.992,8.992,0,0,0-5.112-2.726,10.764,10.764,0,0,0-1.91-.177c-4.215,0-7.324,2.707-8.117,7.066a9.248,9.248,0,0,0,1.686,7.18l.156.189-3.785,2.148-.109-.146a13.49,13.49,0,0,1-2.336-10.3c1.178-6.487,6.225-10.846,12.556-10.846a15.165,15.165,0,0,1,2.7.249,13.119,13.119,0,0,1,9.772,7.645,13.728,13.728,0,0,1,2.315,1.094l.117.074-.792,4.37-.265-.2c-.062-.047-.216-.151-.375-.25a14.057,14.057,0,0,1-.2,2.854C1067.4,2104.068,1064.934,2106.55,1062.056,2106.55Zm-7.34-17.572a11.126,11.126,0,0,1,1.984.182,9.172,9.172,0,0,1,5.563,3.115l.2.25-.313.077a7.292,7.292,0,0,0-5.118,5.88c-.578,3.181.47,6.91,4.138,7.576a4.934,4.934,0,0,0,.884.082c2.676,0,4.972-2.344,5.58-5.7a11.465,11.465,0,0,0,.144-3.125l-.091-.414.382.186a5.888,5.888,0,0,1,.521.309l.627-3.457a13.52,13.52,0,0,0-2.2-1.011l-.087-.029-.037-.085a12.709,12.709,0,0,0-9.5-7.486,14.79,14.79,0,0,0-2.628-.242c-6.222,0-10.992,4.125-12.152,10.509a13.1,13.1,0,0,0,2.155,9.838l3.047-1.728a9.777,9.777,0,0,1-1.622-7.326C1047.024,2091.814,1050.291,2088.978,1054.716,2088.978Zm7.438,13.342h0a1.7,1.7,0,0,1-.3-.028,1.648,1.648,0,0,1-1.266-1.026,3.8,3.8,0,0,1-.12-2.126,3.936,3.936,0,0,1,3.387-3.187l.146-.016.061.135a6.676,6.676,0,0,1,.345,3.512C1064.1,2101.272,1063.237,2102.32,1062.154,2102.32Zm1.594-5.94a3.529,3.529,0,0,0-2.875,2.834,3.408,3.408,0,0,0,.093,1.891,1.244,1.244,0,0,0,.963.783c.959.191,1.787-.792,2.075-2.376A6.5,6.5,0,0,0,1063.748,2096.38Z"/><path d="M1036.66,2130.3a8.207,8.207,0,0,0-1.725,2.537l-3.767-1.372a12.645,12.645,0,0,1,3.936-5.322,13.047,13.047,0,0,1,.622-6.875,12.955,12.955,0,1,1,16.53,16.72l-1.04-2.617c-1.376,2.74-4.522,3.685-8.074,2.394A13.1,13.1,0,0,1,1036.66,2130.3Zm15.14,1.415a8.336,8.336,0,0,0,4.379-4.8c1.786-4.778-.619-9.321-5.336-11.085s-9.511.089-11.3,4.866a9.262,9.262,0,0,0-.611,3.628,13.856,13.856,0,0,1,8.28.653C1049.87,2126.007,1052.344,2128.56,1051.8,2131.717Zm-11.6-3.416a8.664,8.664,0,0,0,4.324,3.384c1.305.488,2.668.432,3.005-.469.35-.93-.632-1.9-2.309-2.525A8.809,8.809,0,0,0,1040.2,2128.3Z"/><path d="M1046.167,2136.543a9.089,9.089,0,0,1-3.1-.584,13.3,13.3,0,0,1-6.448-5.325,8.11,8.11,0,0,0-1.5,2.288l-.077.175-4.151-1.512.084-.2a12.992,12.992,0,0,1,3.9-5.33,13.283,13.283,0,0,1,.653-6.86,12.952,12.952,0,0,1,12.21-8.516,13.4,13.4,0,0,1,4.7.86,13.112,13.112,0,0,1-.124,24.642l-.186.065-.951-2.4A5.638,5.638,0,0,1,1046.167,2136.543Zm-9.466-6.572.135.227a12.892,12.892,0,0,0,6.381,5.378,8.647,8.647,0,0,0,2.95.556,5.159,5.159,0,0,0,4.867-2.851l.2-.409,1.134,2.858a12.694,12.694,0,0,0-.07-23.8,12.977,12.977,0,0,0-4.56-.834,12.541,12.541,0,0,0-11.824,8.249,12.857,12.857,0,0,0-.613,6.766l.022.124-.1.077a12.422,12.422,0,0,0-3.787,5.039l3.386,1.232a8.361,8.361,0,0,1,1.687-2.424Zm9.362,2.224h0a4.668,4.668,0,0,1-1.609-.318,8.888,8.888,0,0,1-4.425-3.465l-.159-.245.286-.066a9.064,9.064,0,0,1,5.139.4,4.088,4.088,0,0,1,2.382,1.764,1.3,1.3,0,0,1,.047,1.026A1.6,1.6,0,0,1,1046.063,2132.2Zm-5.519-3.754a8.535,8.535,0,0,0,4.054,3.051,4.273,4.273,0,0,0,1.465.292h0c.387,0,1.067-.083,1.276-.64a.9.9,0,0,0-.036-.71,3.775,3.775,0,0,0-2.153-1.55A8.661,8.661,0,0,0,1040.544,2128.441Zm10.989,3.624.065-.383c.531-3.082-1.939-5.537-4.46-6.514a13.629,13.629,0,0,0-8.155-.645l-.246.064-.011-.253a9.464,9.464,0,0,1,.624-3.71,8.314,8.314,0,0,1,7.99-5.655,10.212,10.212,0,0,1,3.575.669c4.93,1.843,7.224,6.616,5.456,11.349a8.529,8.529,0,0,1-4.486,4.916Zm-9.654-8.312a15.506,15.506,0,0,1,5.405,1.031c2.569,1,5.084,3.455,4.772,6.582a8.155,8.155,0,0,0,3.93-4.523c1.687-4.51-.508-9.06-5.216-10.82a9.767,9.767,0,0,0-3.43-.644,7.917,7.917,0,0,0-7.6,5.39,9.128,9.128,0,0,0-.6,3.295A11.962,11.962,0,0,1,1041.879,2123.753Z"/><path d="M947.169,2196.942c.567-4.291,1.1-8.341,1.507-11.369l.655-4.5-7.288,1.852c-.4,3-1.243,8.934-1.8,13.1-.583,4.411-1.2,9.077-1.733,13.15-.237,1.8-.458,3.489-.653,4.986a18.838,18.838,0,0,0-2.515-.562,14.522,14.522,0,0,0-5.75.249,8.2,8.2,0,0,0-3.311,1.721,9.09,9.09,0,0,0-2.168,2.74,9.734,9.734,0,0,0-1.023,3.264,9.34,9.34,0,0,0,.2,3.512,8.866,8.866,0,0,0,10.786,6.414,12.735,12.735,0,0,0,5.052-2.555,13.717,13.717,0,0,0,3.038-3.606q.395-.669.726-1.387c.752.358,1.509.7,2.257.982a16.023,16.023,0,0,0,7.295.949,20.427,20.427,0,0,0,5.956-1.547,25.084,25.084,0,0,0,4.027-2.15,18.836,18.836,0,0,0,1.63-1.181l-4.462-5.368s-.369.3-1,.713a18.412,18.412,0,0,1-2.9,1.551,13.424,13.424,0,0,1-3.916,1.033,9.1,9.1,0,0,1-4.146-.524c-.92-.35-1.966-.864-3.1-1.427.246-1.9.557-4.277.9-6.9C945.97,2206.014,946.586,2201.351,947.169,2196.942Zm-11.01,24.853a6.754,6.754,0,0,1-1.485,1.782,5.754,5.754,0,0,1-2.31,1.159,1.871,1.871,0,0,1-1.434-.208,1.872,1.872,0,0,1-.867-1.16,2.42,2.42,0,0,1-.045-.9,2.807,2.807,0,0,1,.291-.931,2.169,2.169,0,0,1,.5-.649,1.241,1.241,0,0,1,.507-.272,7.456,7.456,0,0,1,2.995-.111,13.067,13.067,0,0,1,2.231.56C936.424,2221.319,936.295,2221.564,936.159,2221.795Z" fill="#010101"/><path d="M833.75,2178.3a18.382,18.382,0,0,0-33.632-4.807,13.813,13.813,0,0,0-1.777,6.3c-.045.713-.054,1.431-.039,2.145a11.4,11.4,0,0,0-3.2.27,10.244,10.244,0,0,0-4.039,1.939,10.492,10.492,0,0,0-2.5,2.858,9.189,9.189,0,1,0,15.812,9.365,10.069,10.069,0,0,0,1.266-3.731,24.954,24.954,0,0,1,3.062,2.856,20.5,20.5,0,0,1,3.7,5.675,13.685,13.685,0,0,1,1.184,5.519,9.219,9.219,0,0,1-1.256,4.655l6.006,3.557,13.427-22.674a18.334,18.334,0,0,0,1.991-13.93Zm-34.925,12.068a5.339,5.339,0,0,1-.461,2.448,2.218,2.218,0,0,1-2.2,1.064,2.2,2.2,0,0,1-1.84-1.641,2.2,2.2,0,0,1,.239-1.673,3.406,3.406,0,0,1,.818-.934,3.28,3.28,0,0,1,1.3-.622,5.1,5.1,0,0,1,2.116.011C798.823,2189.489,798.834,2189.943,798.825,2190.368Zm28.419-5.969a11.338,11.338,0,0,1-1.491,4.275l-6.472,10.928q-.213-.584-.462-1.166a27.421,27.421,0,0,0-4.943-7.619,32.782,32.782,0,0,0-7.64-6.206q-.413-.245-.823-.467a27.51,27.51,0,0,1-.105-3.905,7.1,7.1,0,0,1,.816-3.189,11.425,11.425,0,0,1,11.351-5.494,11.51,11.51,0,0,1,7.638,4.523,11.462,11.462,0,0,1,2.131,8.32Z" fill="#010101"/><path d="M880.067,2197.719a23.453,23.453,0,0,0-5.21-7.062,23.039,23.039,0,0,0-7.693-4.736,44.65,44.65,0,0,0-7.819-2.065,59.075,59.075,0,0,0-7.521-.8,60.771,60.771,0,0,0-6.445.054,33.891,33.891,0,0,0-4.7.584l1.458,6.827a27.785,27.785,0,0,1,3.685-.445,53.673,53.673,0,0,1,5.692-.046c.226.01.448.027.672.04l-2.734,7.38a14.069,14.069,0,0,0-14.794,19.8,13.658,13.658,0,0,0,3.449,4.53,21.87,21.87,0,0,0,4.452,2.965,44.734,44.734,0,0,0,4.649,2.037q.459.175.915.344c.6.221,1.187.434,1.765.643.533.192,1.054.381,1.558.567a23.013,23.013,0,0,0,8.922,1.419,23.464,23.464,0,0,0,8.553-1.963,22.76,22.76,0,0,0,7.217-4.979A21.811,21.811,0,0,0,882.3,2206.2,22.76,22.76,0,0,0,880.067,2197.719Zm-37.6,18.581a6.438,6.438,0,0,1-1.466-1.963,7.082,7.082,0,0,1,5.909-10.031Zm31.965-3.566a14.78,14.78,0,0,1-3.3,5.21,15.833,15.833,0,0,1-5.017,3.455,16.49,16.49,0,0,1-6.018,1.381,16.06,16.06,0,0,1-6.231-.989c-.522-.193-1.062-.388-1.614-.587-.831-.3-1.691-.61-2.556-.941-.386-.148-.75-.291-1.1-.431l4.645-12.539a7.211,7.211,0,0,1,.648,1.12l1.981,4.313,6.343-2.914-1.981-4.312a13.978,13.978,0,0,0-3.294-4.517c-.333-.3-.681-.592-1.04-.861l3.394-9.163a36.468,36.468,0,0,1,5.435,1.508,16.079,16.079,0,0,1,5.371,3.309,16.511,16.511,0,0,1,3.666,4.969,15.817,15.817,0,0,1,1.554,5.889A14.768,14.768,0,0,1,874.437,2212.734Z" fill="#010101"/><path d="M911.574,2222.571c-.043.082-.087.163-.134.246s-.09.158-.138.238-.1.162-.145.235-.1.158-.157.237-.11.157-.164.231-.116.156-.17.225-.119.152-.182.227-.124.148-.188.221a9.391,9.391,0,0,1-14.534-.541,9.308,9.308,0,0,1-1.584-3.269,9.4,9.4,0,0,1-.287-1.78,9.282,9.282,0,0,1,.015-1.415c.364.252.739.488,1.121.707a15.5,15.5,0,0,0,8.692,2.007,9.144,9.144,0,1,0-1.172-18.25l-.348.022a16.333,16.333,0,0,0-8.02,2.708,8.536,8.536,0,0,1,.435-2.669,8.368,8.368,0,0,1,.683-1.528,8.65,8.65,0,0,1,2.277-2.591,8.445,8.445,0,0,1,1.427-.873,8.578,8.578,0,0,1,6.418-.413,8.509,8.509,0,0,1,1.527.682,8.713,8.713,0,0,1,1.41,1.009l4.608-5.244a15.6,15.6,0,0,0-2.554-1.825,15.493,15.493,0,0,0-5.716-1.913,15.676,15.676,0,0,0-5.91.381,15.53,15.53,0,0,0-10.22,21.387,16.361,16.361,0,0,0,26.975,18.017q.167-.189.325-.381c.106-.128.209-.256.315-.393s.2-.26.3-.4.19-.265.282-.4.182-.27.275-.414.172-.273.254-.409.166-.282.244-.422.156-.283.231-.426ZM897.6,2210.749a9.358,9.358,0,0,1,3.269-1.584,9.555,9.555,0,0,1,1.78-.287l.347-.022a2.16,2.16,0,0,1,2.3,2.021,2.173,2.173,0,0,1-1.193,2.074,2.16,2.16,0,0,1-.832.223,8.541,8.541,0,0,1-3.249-.418,8.489,8.489,0,0,1-2.877-1.638Q897.366,2210.926,897.6,2210.749Z" fill="#010101"/><path d="M1007.758,2188.918a14.7,14.7,0,0,1-5.915,2.34,22.288,22.288,0,0,0-3.459-14.675c-3.357-5.194-9.8-7.019-14.37-4.068a8.76,8.76,0,0,0-1.2.933l1.426-6.633a22.451,22.451,0,1,0,15.536,31.677,20.674,20.674,0,0,0,11.838-3.606Zm-19.906,12.749a15.353,15.353,0,1,1-5.317-27.949c-3.261,3.307-3.673,8.994-.717,13.569a25.468,25.468,0,0,0,10.772,9.555A15.287,15.287,0,0,1,987.852,2201.667Zm6.973-11.646a19.771,19.771,0,0,1-7.039-6.59c-1.314-2.035-1.011-4.24.084-4.948s3.231-.078,4.545,1.956A15.239,15.239,0,0,1,994.825,2190.021Z" fill="#010101"/><path d="M779.114,2002.081s16,12.58,5.329,28.217l.028.02s12.581-16,28.218-5.328c-15.637-10.67-5.328-28.218-5.328-28.218l-.029-.02C796.662,2012.389,779.114,2002.081,779.114,2002.081Z" fill="#ffcc40"/><path d="M784.463,2033.6a3.263,3.263,0,0,1-1.815-.549l-.029-.019a3.287,3.287,0,0,1-.892-4.585c8.837-12.952-4.089-23.347-4.644-23.784a3.286,3.286,0,0,1,3.7-5.416,24.475,24.475,0,0,0,10.869,2.881c5.335,0,9.7-2.432,12.97-7.228a3.284,3.284,0,0,1,4.538-.882,3.318,3.318,0,0,1,1.039,4.417c-.346.6-8.412,14.871,4.1,23.665a3.287,3.287,0,0,1-1.557,6.175,3.16,3.16,0,0,1-1.894-.571,16.2,16.2,0,0,0-9.158-3.1c-8.362,0-14.571,7.674-14.632,7.751A3.3,3.3,0,0,1,784.463,2033.6Zm4.115-25.088a22.718,22.718,0,0,1,2.768,12.15,22.505,22.505,0,0,1,11.182-2.61,22.694,22.694,0,0,1-1.686-11.343,21.4,21.4,0,0,1-9.2,1.991A25.712,25.712,0,0,1,788.578,2008.512Z" fill="#010101"/><path d="M998.873,1995.034s-19.126-6.958-26.785,10.354l-.031-.014s6.957-19.126-10.355-26.785c17.312,7.659,26.785-10.354,26.785-10.354l.032.014C980.86,1985.56,998.873,1995.034,998.873,1995.034Z" fill="#ffcc40"/><path d="M972.088,2008.674a3.291,3.291,0,0,1-1.407-.316l-.031-.014a3.287,3.287,0,0,1-1.681-4.093c.234-.656,5.647-16.355-8.6-22.657a3.286,3.286,0,0,1,2.66-6.01,17.473,17.473,0,0,0,7.045,1.615c9.871,0,15.447-10.388,15.5-10.493a3.283,3.283,0,0,1,4.183-1.5,3.314,3.314,0,0,1,1.761,4.371c-6,13.558,6.724,21.341,8.658,22.428a3.286,3.286,0,0,1-1.226,6.314,3.431,3.431,0,0,1-1.205-.2,25.124,25.124,0,0,0-7.563-1.184c-7.145,0-12.224,3.291-15.094,9.78a3.281,3.281,0,0,1-3.005,1.956Zm.866-25.1a22.7,22.7,0,0,1,3.714,10.87,22.252,22.252,0,0,1,11.731-4.019,22.731,22.731,0,0,1-4.922-11.435A22.228,22.228,0,0,1,972.954,1983.572Z" fill="#010101"/><path d="M936.18,1966.121s-18.984-7.338-26.987,9.817l-.031-.015s7.338-18.983-9.817-26.986c17.155,8,26.986-9.817,26.986-9.817l.031.015C918.359,1956.29,936.18,1966.121,936.18,1966.121Z" fill="#ffcc40"/><path d="M909.192,1979.224a3.3,3.3,0,0,1-1.348-.289l-.032-.014a3.287,3.287,0,0,1-1.715-4.181c.247-.652,5.973-16.24-8.142-22.825a3.286,3.286,0,1,1,2.779-5.955,17.3,17.3,0,0,0,7.293,1.758c9.615,0,15.374-10.091,15.431-10.194a3.3,3.3,0,0,1,5.882,3c-6.262,13.424,6.276,21.457,8.2,22.592a3.287,3.287,0,0,1-1.283,6.291,3.65,3.65,0,0,1-1.264-.222,25.262,25.262,0,0,0-7.986-1.338c-6.911,0-11.9,3.19-14.839,9.481A3.284,3.284,0,0,1,909.192,1979.224Zm1.3-25.08a22.668,22.668,0,0,1,3.495,10.883A22.389,22.389,0,0,1,925.8,1961.3a22.71,22.71,0,0,1-4.691-11.532A22.251,22.251,0,0,1,910.493,1954.144Z" fill="#010101"/><path d="M859.8,1954.378s-17.729,9.994-9.569,27.075l-.031.015s-9.994-17.729-27.075-9.569c17.081-8.16,9.569-27.075,9.569-27.075l.031-.015C840.89,1961.89,859.8,1954.378,859.8,1954.378Z" fill="#ffcc40"/><path d="M850.221,1984.743a3.3,3.3,0,0,1-2.875-1.654c-.116-.2-5.906-10.052-15.393-10.052a17.2,17.2,0,0,0-7.407,1.828,3.286,3.286,0,0,1-2.834-5.93c14.149-6.759,8.194-22.242,7.934-22.9a3.3,3.3,0,0,1,6.049-2.644c2.961,6.2,7.916,9.344,14.725,9.344h0a25.135,25.135,0,0,0,8.181-1.417,3.286,3.286,0,0,1,2.817,5.92c-.6.347-14.932,8.743-8.217,22.8a3.289,3.289,0,0,1-1.616,4.414A3.345,3.345,0,0,1,850.221,1984.743Zm-15.991-18.152a22.249,22.249,0,0,1,10.655,4.279,22.689,22.689,0,0,1,4.585-11.578,22.416,22.416,0,0,1-11.845-3.619A22.678,22.678,0,0,1,834.23,1966.591Z" fill="#010101"/><path d="M1019.281,2178.378a3.286,3.286,0,0,1-2.394-5.537c10.057-10.69,15.311-17.074,21.825-28.942a3.285,3.285,0,0,1,5.76,3.161c-6.858,12.5-12.338,19.164-22.8,30.283A3.276,3.276,0,0,1,1019.281,2178.378Z" fill="#010101"/><path d="M777.731,2181.938a3.275,3.275,0,0,1-2.394-1.035c-9.511-10.112-15.591-17.518-22.428-29.933a3.286,3.286,0,1,1,5.757-3.17c6.5,11.8,12.323,18.89,21.459,28.6a3.286,3.286,0,0,1-2.394,5.537Z" fill="#010101"/></g></svg>