<svg xmlns="http://www.w3.org/2000/svg" width="177.425" height="119.582" viewBox="0 0 177.425 119.582"><g transform="translate(-552.639 -3665.515)"><path d="M552.639,3703.311v-6.958a16.1,16.1,0,0,0,16.1-16.1h6.958a23.053,23.053,0,0,1-23.054,23.054Z"/><path d="M728.2,3703.311a23.053,23.053,0,0,1-23.054-23.054H712.1a16.095,16.095,0,0,0,16.1,16.1Z"/><path d="M714.357,3694.1c-18.922,9.887-45.063,16-73.938,16s-55.016-6.115-73.938-16c18.922,33.252,45.063,53.819,73.938,53.819s55.016-20.567,73.938-53.819Z"/><path d="M640.419,3751.4c-29.235,0-56.567-19.738-76.962-55.577a3.479,3.479,0,0,1,4.635-4.8c19.261,10.064,44.947,15.606,72.327,15.606s53.066-5.542,72.327-15.606a3.479,3.479,0,0,1,4.635,4.8C696.986,3731.658,669.654,3751.4,640.419,3751.4Zm-64.975-49.357c18.241,27.438,41.026,42.4,64.975,42.4s46.734-14.961,64.975-42.4c-18.595,7.486-41.21,11.54-64.975,11.54S594.039,3709.525,575.444,3702.039Z"/><path d="M617.777,3758.976a22.642,22.642,0,1,0,45.283,0V3741.1a13.157,13.157,0,0,0-22.641-9.13,13.158,13.158,0,0,0-22.642,9.13Z" fill="#eb0045"/><path d="M640.419,3785.1a26.15,26.15,0,0,1-26.12-26.121V3741.1a16.665,16.665,0,0,1,16.645-16.646,16.466,16.466,0,0,1,9.475,2.962,16.464,16.464,0,0,1,9.475-2.962,16.665,16.665,0,0,1,16.645,16.646v17.872A26.15,26.15,0,0,1,640.419,3785.1Zm-9.475-53.681a9.7,9.7,0,0,0-9.687,9.688v17.872a19.162,19.162,0,1,0,38.324,0V3741.1a9.678,9.678,0,0,0-16.657-6.715l-2.505,2.6-2.505-2.6A9.6,9.6,0,0,0,630.944,3731.416Z"/><rect width="6.958" height="23.95" transform="translate(636.94 3731.974)"/><path d="M639.1,3710.091l-.328,0a10.1,10.1,0,0,1,.164,1.768A10.171,10.171,0,0,1,639.1,3710.091Z"/><path d="M638.933,3715.336a3.479,3.479,0,0,1-3.479-3.479,6.617,6.617,0,0,0-.111-1.161,3.479,3.479,0,0,1,3.425-4.086h.027l.33,0a3.479,3.479,0,0,1,3.4,4.087,6.525,6.525,0,0,0-.111,1.157A3.479,3.479,0,0,1,638.933,3715.336Z"/><path d="M628.862,3721.928a10.032,10.032,0,0,0,9.907-11.839c-6.689-.054-13.227-.433-19.554-1.114a10.063,10.063,0,0,0,9.647,12.953Z" fill="#fff"/><path d="M628.862,3725.407a13.541,13.541,0,0,1-12.98-17.428l.828-2.772,2.877.31c6.258.673,12.721,1.041,19.21,1.093l2.892.024.5,2.848a13.508,13.508,0,0,1-13.332,15.925Zm-6.528-12.629a6.593,6.593,0,0,0,12.91.732C630.9,3713.4,626.58,3713.156,622.334,3712.778Z"/><path d="M649,3721.928a10.04,10.04,0,0,0,9.722-12.664c-5.945.549-12.062.836-18.307.836-.442,0-.881-.006-1.322-.009A10.03,10.03,0,0,0,649,3721.928Z" fill="#fff"/><path d="M649,3725.407a13.507,13.507,0,0,1-13.332-15.924l.513-2.889,3.4.022c.279,0,.558.005.838.005,6.029,0,12.081-.276,17.987-.821l2.927-.27.755,2.84A13.518,13.518,0,0,1,649,3725.407Zm-6.367-11.84a6.593,6.593,0,0,0,12.856-.543C651.244,3713.339,646.939,3713.521,642.637,3713.567Z"/><circle cx="4.226" cy="4.226" r="4.226" transform="translate(721.612 3665.515)"/></g></svg>