<svg xmlns="http://www.w3.org/2000/svg" width="404.538" height="145.45" viewBox="0 0 404.538 145.45"><g transform="translate(-161.051 -2503.907)"><path d="M265.351,2537.767c0,6.011,4.069,9.9,10.367,9.9,5.165,0,9.059-3.648,9.059-8.486a16.578,16.578,0,0,0-2.2-7.237,13.715,13.715,0,0,1,9.851,4.232,13.34,13.34,0,0,1,3.672,9.915l-.031.709h8.684l-.058-23.128c-.058-12.973-9.5-19.761-18.8-19.761-10.042,0-17.331,6.807-17.331,16.185a16.689,16.689,0,0,0,1.4,6.251c.187.51.383.981.588,1.406A12.3,12.3,0,0,0,265.351,2537.767Zm11.862-17.729c0-4.836,3.547-8.212,8.627-8.212,4.941,0,10.26,3.961,10.26,12.658v4.141a20.714,20.714,0,0,0-17.763-4.33l-.32-.7A8.8,8.8,0,0,1,277.213,2520.038Zm-3.592,17.763a4.216,4.216,0,0,1,1.078-3.082,9.583,9.583,0,0,1,1.7,4.187c0,.645-.4,1-1.117,1C274.408,2539.907,273.664,2538.96,273.621,2537.8Z" fill="#010101"/><path d="M307.469,2518.412a33.064,33.064,0,0,1,8.164-4.365v4.8c-6.14.376-10.068,4.34-10.068,10.25,0,10.9,9.679,18.516,23.536,18.516,12.679,0,22.611-9.586,22.611-21.824,0-15.032-12.708-21.878-24.516-21.878a40.6,40.6,0,0,0-21.319,6.235l-.356.228,1,8.756Zm21.9,21.224a21.992,21.992,0,0,1-5.2-.606v-8.442a55.388,55.388,0,0,1,6.308,4.138l.619.477,4.175-7.342-.506-.355a95.47,95.47,0,0,0-10.6-6.318v-9.242a23.734,23.734,0,0,1,3.131-.175c9.639,0,15.867,5.5,15.867,14.014C343.172,2533.811,337.369,2539.636,329.373,2539.636Zm-13.74-12.455v6.95a8.1,8.1,0,0,1-1.69-4.876A1.991,1.991,0,0,1,315.633,2527.181Z" fill="#010101"/><path d="M368.769,2547.663c4.633,0,11.216-2.079,14.524-7.936l.311-.551-6.965-4.6-.356.644a8.224,8.224,0,0,1-7.514,4.366,7.353,7.353,0,0,1-7.748-7.212,14.638,14.638,0,0,0,8.021,2.281c5.91,0,10.039-3.824,10.039-9.3,0-5.412-4.062-9.192-9.876-9.192a17.012,17.012,0,0,0-7.151,1.561c.181-3.957,3.3-5.732,6.388-5.732a7.147,7.147,0,0,1,4.713,1.773l.463.422,5.981-5.569-.5-.5a15.131,15.131,0,0,0-10.657-4.21c-8.529,0-14.719,5.918-14.719,14.071a19.109,19.109,0,0,0,1.019,6.208,15.625,15.625,0,0,0-2.216,8C352.526,2541.3,359.2,2547.663,368.769,2547.663Zm.218-23.909c1.044,0,2.1.493,2.1,1.6s-1.053,1.6-2.1,1.6a6.235,6.235,0,0,1-4.368-1.825A8.188,8.188,0,0,1,368.987,2523.754Z" fill="#010101"/><path d="M394.126,2547.663a12.355,12.355,0,0,0,9.659-4.33,21.03,21.03,0,0,0,11.456,3.679,13.908,13.908,0,0,0,6.245-1.322l.367-.191v-8.745l-1.061.723a8.653,8.653,0,0,1-4.843,1.346,16.671,16.671,0,0,1-8.2-2.645l12.013-31.4H410.8l-10.1,26.383a12.2,12.2,0,0,0-6.576-1.877c-5.755,0-9.931,3.888-9.931,9.245C384.2,2543.82,388.371,2547.663,394.126,2547.663Zm0-7.865c-.882,0-1.825-.333-1.825-1.272,0-.88.916-1.273,1.825-1.273a6.418,6.418,0,0,1,3.075,1.018A3.983,3.983,0,0,1,394.126,2539.8Z" fill="#010101"/><path d="M422.665,2537.767c0,6.011,4.069,9.9,10.367,9.9,5.165,0,9.059-3.648,9.059-8.486a16.558,16.558,0,0,0-2.2-7.237,13.721,13.721,0,0,1,9.854,4.234,13.336,13.336,0,0,1,3.669,9.913l-.031.709h8.684l-.056-23.128c-.06-12.973-9.5-19.761-18.8-19.761-10.042,0-17.331,6.807-17.331,16.185a16.7,16.7,0,0,0,1.4,6.251c.187.512.385.983.587,1.406A12.3,12.3,0,0,0,422.665,2537.767Zm11.862-17.729c0-4.836,3.548-8.212,8.627-8.212,4.941,0,10.26,3.961,10.26,12.658v4.141a20.714,20.714,0,0,0-17.763-4.33l-.32-.7A8.814,8.814,0,0,1,434.527,2520.038Zm-3.592,17.763a4.216,4.216,0,0,1,1.078-3.082,9.6,9.6,0,0,1,1.7,4.187c0,.645-.4,1-1.118,1C431.722,2539.907,430.978,2538.96,430.935,2537.8Z" fill="#010101"/><path d="M178.818,2554.741c-8.829,0-17.767,5.913-17.767,17.215v25.674h8.54v-11.189a18.724,18.724,0,0,0,9.336,2.568c10.106,0,17.441-7.194,17.441-17.107C196.368,2562.119,188.823,2554.741,178.818,2554.741Zm-9.227,17.161a9.2,9.2,0,0,1,18.4,0c0,5.483-3.536,9.026-9.009,9.026a9.392,9.392,0,0,1-6.935-3.227l-.536-.64-1.919,2.429Z" fill="#010101"/><path d="M216.093,2554.741c-10.043,0-17.333,6.807-17.333,16.185a16.708,16.708,0,0,0,1.4,6.251c.187.512.384.983.586,1.406a12.3,12.3,0,0,0-5.2,10.018c0,6.012,4.069,9.9,10.366,9.9,5.164,0,9.059-3.648,9.059-8.486a16.578,16.578,0,0,0-2.2-7.237,13.713,13.713,0,0,1,9.852,4.234,13.336,13.336,0,0,1,3.67,9.912l-.031.71h8.684l-.057-23.128C234.834,2561.529,225.391,2554.741,216.093,2554.741Zm-8.682,16.131c0-4.836,3.547-8.212,8.627-8.212,4.941,0,10.26,3.961,10.26,12.658v4.141a20.716,20.716,0,0,0-17.764-4.33l-.318-.7A8.778,8.778,0,0,1,207.411,2570.872Zm-.813,18.868c0,.645-.4,1-1.118,1-.873,0-1.618-.947-1.661-2.106a4.219,4.219,0,0,1,1.078-3.082A9.622,9.622,0,0,1,206.6,2589.74Z" fill="#010101"/><path d="M266.13,2597.047l.051.073h12.171l-10.9-15.338c5.339-2.048,8.046-6.527,8.046-13.319,0-4.992-1.453-8.669-4.319-10.93s-7.68-3.392-14.339-3.392H240.448v42.979h9.89v-13.6h6.353Zm-8.983-22.105h-6.809v-12.287h6.993c3.011,0,5.142.421,6.331,1.251,1.17.815,1.763,2.359,1.763,4.588s-.578,3.887-1.717,4.905S260.354,2574.942,257.147,2574.942Z" fill="#010101"/><path d="M307.44,2554.244l-.044-.1h-9.467l-18.635,42.979h10.532l3.98-9.211H311.52l3.979,9.211h10.533Zm.322,24.968h-10.2l5.128-11.786Z" fill="#010101"/><path d="M342.037,2589.36c0,5.295,4.176,9.137,9.931,9.137a12.355,12.355,0,0,0,9.659-4.33,21.03,21.03,0,0,0,11.457,3.679,13.906,13.906,0,0,0,6.244-1.322l.367-.191v-8.745l-1.061.723a8.653,8.653,0,0,1-4.843,1.346,16.671,16.671,0,0,1-8.2-2.645l12.013-31.4h-8.964l-10.1,26.383a12.2,12.2,0,0,0-6.576-1.878C346.213,2580.114,342.037,2584,342.037,2589.36Zm9.931,1.272c-.882,0-1.825-.333-1.825-1.272,0-.879.916-1.272,1.825-1.272a6.426,6.426,0,0,1,3.075,1.017A3.983,3.983,0,0,1,351.968,2590.632Z" fill="#010101"/><path d="M385.193,2554.141v42.979h28.134V2588.3H395.083v-34.16Z" fill="#010101"/><path d="M431.523,2598.5c4.633,0,11.216-2.078,14.523-7.936l.311-.551-6.965-4.6-.355.645a8.225,8.225,0,0,1-7.514,4.366,7.352,7.352,0,0,1-7.748-7.212,14.637,14.637,0,0,0,8.02,2.281c5.911,0,10.039-3.824,10.039-9.3,0-5.412-4.061-9.192-9.876-9.192a17,17,0,0,0-7.149,1.56c.182-3.956,3.3-5.731,6.388-5.731a7.144,7.144,0,0,1,4.711,1.773l.463.422,5.981-5.569-.5-.5a15.128,15.128,0,0,0-10.655-4.21c-8.529,0-14.72,5.917-14.72,14.071a19.118,19.118,0,0,0,1.019,6.208,15.617,15.617,0,0,0-2.217,8C415.279,2592.131,421.958,2598.5,431.523,2598.5Zm.217-23.909c1.044,0,2.1.493,2.1,1.6s-1.053,1.6-2.1,1.6a6.232,6.232,0,0,1-4.366-1.824A8.181,8.181,0,0,1,431.74,2574.588Z" fill="#010101"/><path d="M455.07,2554.141H444.359l17.3,42.873.043.106h8.31l17.245-42.746.093-.233H476.634L465.852,2581l-10.739-26.753Z" fill="#010101"/><path d="M527.932,2590.58a13.158,13.158,0,0,1-3.859-.8,22.1,22.1,0,0,0,4.282-12.787c-.053-5.923-2.959-10.251-7.525-11.422l2.888-2.6-.42-.5A21.886,21.886,0,1,0,506.56,2598.5a22.2,22.2,0,0,0,10.929-2.872,21.8,21.8,0,0,0,10.432,2.872l.711.027-.066-7.907Zm-21.372-27.812a13.143,13.143,0,0,1,8.522,2.941c-4.745,1.608-6.972,6.78-7.025,11.235a23.586,23.586,0,0,0,3.4,12.739,14.861,14.861,0,0,1-4.895.787c-7.836,0-13.309-5.7-13.309-13.851S498.724,2562.768,506.56,2562.768Zm11.592,10.789c1.149,0,1.77,1.885,1.77,3.659a13.689,13.689,0,0,1-2.007,7.312,13.829,13.829,0,0,1-1.642-6.662C516.273,2575.288,517.028,2573.557,518.152,2573.557Z" fill="#010101"/><path d="M558.961,2573.476a19.282,19.282,0,0,0,.26-3.2c0-7.482-4.3-15.535-13.739-15.535-9.591,0-13.959,7.912-13.959,15.264v27.625h8.488v-11.578a10.254,10.254,0,0,0,6.885,2.469,10.73,10.73,0,0,0,9.336-5.49,17.277,17.277,0,0,1,1.2,6.763,32.52,32.52,0,0,1-.8,7.01l-.181.826h8.437l.1-.563a39.974,39.974,0,0,0,.608-6.948C565.589,2582.826,563.3,2577.083,558.961,2573.476Zm-11.03-3.879a11.113,11.113,0,0,0-7.92,2.955v-2.927c0-5.1,2.854-6.911,5.525-6.911a4.966,4.966,0,0,1,3.548,1.582,7.891,7.891,0,0,1,1.937,5.591A18.01,18.01,0,0,0,547.931,2569.6Zm-.218,7.7a9.214,9.214,0,0,1,2.447.319,3.658,3.658,0,0,1-3.7,2.985c-.943,0-1.553-.52-1.553-1.327C544.908,2578.074,546.01,2577.3,547.713,2577.3Z" fill="#010101"/><path d="M272.776,2605.575c-10.042,0-17.332,6.807-17.332,16.185a16.693,16.693,0,0,0,1.4,6.251c.186.51.383.981.587,1.406a12.3,12.3,0,0,0-5.2,10.018c0,6.011,4.068,9.9,10.366,9.9,5.165,0,9.06-3.648,9.06-8.486a16.578,16.578,0,0,0-2.2-7.237,13.716,13.716,0,0,1,9.851,4.232,13.342,13.342,0,0,1,3.672,9.914l-.031.71h8.683l-.057-23.129C291.518,2612.363,282.075,2605.575,272.776,2605.575Zm-8.682,16.131c0-4.836,3.548-8.212,8.628-8.212,4.941,0,10.26,3.961,10.26,12.658v4.141a20.716,20.716,0,0,0-17.764-4.33l-.319-.7A8.784,8.784,0,0,1,264.094,2621.706Zm-.813,18.868c0,.645-.4,1-1.117,1-.874,0-1.618-.947-1.662-2.106a4.221,4.221,0,0,1,1.079-3.082A9.6,9.6,0,0,1,263.281,2640.574Z" fill="#010101"/><path d="M354.375,2636.661a18.268,18.268,0,0,1-12.381,4.426c-8.124,0-13.8-5.606-13.8-13.634,0-8.057,5.6-13.9,13.307-13.9,4.13,0,8.574,1.993,8.574,6.369a1.183,1.183,0,0,1-1.226,1.218,1.372,1.372,0,0,1-1.457-1.292l-.105-.551h-8.121l.024.7a9.269,9.269,0,0,0,9.6,9.114c5.383,0,9.441-3.905,9.441-9.083,0-8.238-7.147-14.45-16.625-14.45-12.519,0-21.958,9.383-21.958,21.824,0,12.913,9.141,21.932,22.231,21.932,4.193,0,10.388-1.336,14.082-4.268l.288-.23-.874-9.108Z" fill="#010101"/><path d="M386.18,2604.975h-9.467l-18.635,42.979H368.61l3.978-9.211H390.3l3.98,9.211h10.531l-18.59-42.876Zm.366,25.071h-10.2l5.128-11.786Z" fill="#010101"/><path d="M420.438,2623.969c-4.009-1.945-7.074-3.622-7.074-6,0-2.557,1.763-4.146,4.6-4.146,3.057,0,5.913,3.127,7.387,6.227l.4.847,6.21-5.924-.218-.447c-2.774-5.686-7.8-8.947-13.781-8.947-7.585,0-13.3,5.443-13.3,12.661,0,5.183,2.888,8,5.712,9.849a11.4,11.4,0,0,0-4.351,9.181c0,6.878,5.392,12.065,12.542,12.065,7.337,0,12.87-5.257,12.87-12.227C431.432,2629.321,425.078,2626.227,420.438,2623.969Zm-1.767,17.118a3.728,3.728,0,0,1-3.947-3.821,3.656,3.656,0,0,1,3.947-3.82,4.519,4.519,0,0,1,1.666.283,4.158,4.158,0,0,1,2.282,3.537A3.689,3.689,0,0,1,418.671,2641.087Z" fill="#010101"/><path d="M474.761,2641.414a13.144,13.144,0,0,1-3.858-.8,22.1,22.1,0,0,0,4.281-12.788c-.053-5.922-2.959-10.25-7.525-11.421l2.888-2.6-.42-.5a21.886,21.886,0,1,0-16.738,36.031,22.187,22.187,0,0,0,10.929-2.872,21.8,21.8,0,0,0,10.433,2.871l.711.027-.066-7.906ZM453.389,2613.6a13.151,13.151,0,0,1,8.522,2.94c-4.744,1.609-6.972,6.78-7.024,11.236a23.577,23.577,0,0,0,3.4,12.739,14.872,14.872,0,0,1-4.9.787c-7.836,0-13.308-5.7-13.308-13.851S445.553,2613.6,453.389,2613.6Zm11.592,10.789c1.149,0,1.771,1.885,1.771,3.659a13.689,13.689,0,0,1-2.008,7.312,13.829,13.829,0,0,1-1.642-6.662C463.1,2626.122,463.858,2624.391,464.981,2624.391Z" fill="#010101"/><circle cx="6.919" cy="6.919" r="6.919" transform="translate(215.25 2511.919)" fill="#010101"/></g></svg>