<svg xmlns="http://www.w3.org/2000/svg" width="59.102" height="22" viewBox="0 0 59.102 22">
  <path id="Trazado_111" data-name="Trazado 111" d="M773.722,72.308a52.011,52.011,0,0,1,9.16.819,26.63,26.63,0,0,1,6.529,1.936c8.426-2.074,20.562.755,22.191,1.154l-.931,3.8c-3.362-.822-10.917-2.148-16.964-1.676a7.3,7.3,0,0,1,1.3,2.9c1.01,4.9-3.269,9.6-5.376,10.992-2.969,1.959-8.453,3.339-11.352.28a5.658,5.658,0,0,1-1.424-4.437c.282-3.412,2.914-7.189,7.419-10.656q-.977-.245-2.081-.442c-16.242-2.9-27.612,3.558-27.725,3.624L752.5,77.22C752.917,76.978,761.133,72.309,773.722,72.308ZM782.94,90.4a9.011,9.011,0,0,0,4.533-1.434c1.575-1.039,4.233-4.335,3.7-6.933a4.517,4.517,0,0,0-2.219-2.763,7.969,7.969,0,0,0-2.073,1.09c-5.4,4.082-6.051,7.187-6.122,8.041a1.858,1.858,0,0,0,.365,1.421A2.481,2.481,0,0,0,782.94,90.4Z" transform="translate(-752.5 -72.308)"/>
</svg>
