<svg xmlns="http://www.w3.org/2000/svg" xmlns:xlink="http://www.w3.org/1999/xlink" width="448" height="351.753" viewBox="0 0 448 351.753"><defs><clipPath id="a"><path d="M293.588,2778.269a32.35,32.35,0,0,1,32.314-32.314H543.481a32.35,32.35,0,0,1,32.314,32.314v52.51h-8.313a2.238,2.238,0,0,0-.508-.063H293.588Z" fill="none"/></clipPath><clipPath id="b"><path d="M293.588,2835.261H575.795v5.3c-6.591.621-10.292,3.953-13.594,6.926-3.5,3.153-6.528,5.877-12.836,5.877s-9.333-2.724-12.836-5.877c-3.66-3.3-7.807-7.028-15.835-7.028s-12.175,3.733-15.834,7.028c-3.5,3.153-6.528,5.877-12.835,5.877s-9.333-2.724-12.835-5.877c-3.659-3.3-7.807-7.028-15.834-7.028-8.071,0-12.2,3.736-15.838,7.032-3.48,3.151-6.486,5.873-12.829,5.873-6.307,0-9.332-2.724-12.835-5.877-3.659-3.3-7.807-7.028-15.834-7.028s-12.175,3.733-15.834,7.028c-3.5,3.153-6.528,5.877-12.835,5.877s-9.331-2.724-12.834-5.877c-3.659-3.3-7.806-7.028-15.833-7.028s-12.175,3.733-15.834,7.028c-3.5,3.153-6.528,5.877-12.834,5.877s-9.333-2.724-12.835-5.877c-.819-.737-1.662-1.5-2.568-2.231v-.22a2.24,2.24,0,0,0-2.241-2.24h0a2.219,2.219,0,0,0-.965.227,18.777,18.777,0,0,0-7.818-2.462Z" fill="none"/></clipPath></defs><g transform="translate(-139 -2741.316)"><circle cx="23.75" cy="23.75" r="23.75" transform="translate(414.652 3019.316)"/><circle cx="19.268" cy="19.268" r="19.268" transform="translate(419.134 3023.798)"/><path d="M584.729,2947.316H580v-114.3c0-.011,0-.021,0-.031s0-.021,0-.032v-54.688c0-20.289-16.23-36.953-36.519-36.953H325.9a37.064,37.064,0,0,0-36.9,36.953v54.688c0,.011,0,.021,0,.032s0,.02,0,.031v114.3h-1.775A2.526,2.526,0,0,0,285,2949.88v13.048a2.358,2.358,0,0,0,2.225,2.388H289v1.876c-1-.722-1.245-1.156-2.14-1.036a11.781,11.781,0,0,0-3.138.88l-.295.088a1.636,1.636,0,0,1-1.3.205l-9.08,1.792a7.4,7.4,0,0,0-4.439-1.952c-13.306-1.116-47.533-4.234-77.92-9.076a20.314,20.314,0,0,0-21.937,12.166,11.169,11.169,0,0,0,6.338,14.811l3.909,1.475a54.272,54.272,0,0,0-13.6,9.661c.075-4.8-.831-10.984-4.616-14.851-2.61-2.665-6.775-3.846-10.775-3.54v-2.085a2.181,2.181,0,0,0-1.969-2.414H141.1a2.279,2.279,0,0,0-2.1,2.414v21.79c0,1.238.86,2.8,2.1,2.8h6.933c1.238,0,1.969-1.558,1.969-2.8v-3.564c1,.223,2.868.708,3.288,1.517.233.45.784,2.283-2.809,6.954-3.792,4.93-5.351,9.74-4.7,14.294a14.28,14.28,0,0,0,4.067,7.988,54.387,54.387,0,0,0,2.511,30.314,2.246,2.246,0,0,0,1.925,1.435c.058,0,.118.006.175.006a2.244,2.244,0,0,0,1.947-1.129l1.564-2.738a26.636,26.636,0,0,0,1.551,4.4q.263.631.564,1.37c-1.042.711-2.169,1.484-3.4,2.335h0l-.02.014c-.04.027-.07.062-.107.091a2.3,2.3,0,0,0-.219.186c-.051.052-.092.11-.137.166s-.1.111-.136.173-.07.127-.1.192a1.968,1.968,0,0,0-.1.194c-.028.069-.045.141-.066.212s-.044.134-.058.205a2.157,2.157,0,0,0-.029.29c0,.046-.014.089-.014.135v.011a2.228,2.228,0,0,0,.042.414c0,.009,0,.019,0,.028a2.3,2.3,0,0,0,.077.249c.019.057.031.117.054.172.007.017.019.032.027.049a2.243,2.243,0,0,0,.187.341l.006.009c.011.016.025.026.036.042a2.256,2.256,0,0,0,.292.326c.042.04.087.074.132.11a2.345,2.345,0,0,0,.274.185c.05.029.1.058.152.083a2.224,2.224,0,0,0,.33.122c.045.013.089.031.135.042.156.035.318-.186.485-.186l.01-.242h5.053c8.257,16,24.028,24.762,41.5,24.762s33.241-8.762,41.5-24.762H312.45a25.441,25.441,0,0,0,21.9-12.164c.069-.114.121.3.167.183,4.133.934,8.424,1.981,12.834,1.981h43.006a49.163,49.163,0,0,0,96.1,0h35.586c32.114,0,57.964-26.961,57.964-59.075v-29.925h4.729a2.4,2.4,0,0,0,2.271-2.388V2949.88A2.565,2.565,0,0,0,584.729,2947.316Zm-247.729,0H304.65l-.035-96.271c3.558,3.193,7.687,6.72,15.4,6.72,8.027,0,12.174-3.693,15.833-6.988,3.5-3.153,6.528-5.857,12.835-5.857s9.332,2.734,12.834,5.887c3.659,3.3,7.806,7.034,15.833,7.034s12.175-3.732,15.834-7.026c3.5-3.154,6.528-5.876,12.835-5.876s9.332,2.724,12.835,5.878c3.659,3.294,7.806,7.028,15.834,7.028,8.071,0,12.2-3.736,15.837-7.032,3.481-3.151,6.486-5.873,12.83-5.873,6.307,0,9.332,2.724,12.835,5.878,3.659,3.294,7.806,7.028,15.834,7.028s12.174-3.734,15.834-7.028c3.5-3.154,6.528-5.878,12.835-5.878s9.333,2.724,12.836,5.878c3.659,3.294,7.807,7.028,15.835,7.028,7.57,0,11.689-3.482,15.2-6.622l.162,96.092H380m-27.01-4.3c-.009-.026-.012-.024-.023-.05"/><path d="M145.79,2980.352v14.927h-2.451v-17.308h2.451Z" fill="#ffb1bd"/><path d="M293.588,2778.269a32.35,32.35,0,0,1,32.314-32.314H543.481a32.35,32.35,0,0,1,32.314,32.314v52.51h-8.313a2.238,2.238,0,0,0-.508-.063H293.588Z" fill="#ffb1bd"/><path d="M293.588,2835.261H575.795v5.3c-6.591.621-10.292,3.953-13.594,6.926-3.5,3.153-6.528,5.877-12.836,5.877s-9.333-2.724-12.836-5.877c-3.66-3.3-7.807-7.028-15.835-7.028s-12.175,3.733-15.834,7.028c-3.5,3.153-6.528,5.877-12.835,5.877s-9.333-2.724-12.835-5.877c-3.659-3.3-7.807-7.028-15.834-7.028-8.071,0-12.2,3.736-15.838,7.032-3.48,3.151-6.486,5.873-12.829,5.873-6.307,0-9.332-2.724-12.835-5.877-3.659-3.3-7.807-7.028-15.834-7.028s-12.175,3.733-15.834,7.028c-3.5,3.153-6.528,5.877-12.835,5.877s-9.331-2.724-12.834-5.877c-3.659-3.3-7.806-7.028-15.833-7.028s-12.175,3.733-15.834,7.028c-3.5,3.153-6.528,5.877-12.834,5.877s-9.333-2.724-12.835-5.877c-.819-.737-1.662-1.5-2.568-2.231v-.22a2.24,2.24,0,0,0-2.241-2.24h0a2.219,2.219,0,0,0-.965.227,18.777,18.777,0,0,0-7.818-2.462Z" fill="#ffb1bd"/><path d="M575.795,2845.067v101.825h-6.584l-.167-99.253A14.314,14.314,0,0,1,575.795,2845.067Z" fill="#fff"/><path d="M293.588,2845.067a14.259,14.259,0,0,1,6.544,2.432l.036,100.14h-6.58Z" fill="#fff"/><path d="M285.1,2971.353c.057-.029.111-.06.164-.093s.117-.044.173-.069a7.418,7.418,0,0,1,2.073-.592,2.228,2.228,0,0,0,1.6-1.046v19.582a2.255,2.255,0,0,0-.721-.133,7.53,7.53,0,0,1-7.37-7.495C281.015,2977.433,283.353,2972.248,285.1,2971.353Z" fill="#fff"/><path d="M286.916,2993.374a11.817,11.817,0,0,0,1.27.107c.053,0,.106.005.16.005a2.25,2.25,0,0,0,.592-.079c.059-.016.111-.044.168-.065v1.9a58.784,58.784,0,0,0,.3,5.875,27.219,27.219,0,0,0-8.652-1.309,5.86,5.86,0,0,0,.265-1.679,8.808,8.808,0,0,0-1.121-4.346Z" fill="#fff"/><path d="M312.967,3042.448a11.52,11.52,0,0,1-11.028,8.3h-25.2a11.45,11.45,0,0,1-11.458-11.509,2.129,2.129,0,0,0,.1-1.506,11.455,11.455,0,0,1,10.676-9.907H299.1a58.725,58.725,0,0,0,13.943,14.441A1.935,1.935,0,0,0,312.967,3042.448Z" fill="#fff"/><path d="M316.885,3044.855c1.443.89,2.932,1.712,4.455,2.475a13.13,13.13,0,0,1-8.334,3.4A15.889,15.889,0,0,0,316.885,3044.855Z" fill="#fff"/><path d="M251.589,3040.577h9.248a15.782,15.782,0,0,0,4.236,9.579c.188.2.382.4.58.59H250.9a47.549,47.549,0,0,0,.734-8.324C251.631,3041.8,251.613,3041.19,251.589,3040.577Z" fill="#fff"/><path d="M268.707,3023.342c2.334-2.238,7.1-2.45,7.1-2.451l19.245-.042q.622,1.264,1.3,2.493Z" fill="#ffb1bd"/><path d="M275.728,3016.41a21.107,21.107,0,0,0-5.71,1.119c-5.336,1.893-6.758,5.3-7.01,7.832a2.24,2.24,0,0,0,2.23,2.463h.4a15.894,15.894,0,0,0-4.517,8.271H251.2a47.024,47.024,0,0,0-7.268-19.478l7.983,2.29a2.236,2.236,0,0,0,1.267-.012c3.872-.186,10.2-2.242,13.559-4.968,2.311-1.526,7.835-5.387,11.293-9.534a22.866,22.866,0,0,1,12.125,1.847,57.732,57.732,0,0,0,2.929,10.131Z" fill="#ffb1bd"/><path d="M275.284,2973.248l3.421-.675a23.483,23.483,0,0,0-2.172,8.934,11.906,11.906,0,0,0,2.941,7.81l-6.011.35a11.117,11.117,0,0,0,1.939-6.283v-8.822A7.58,7.58,0,0,0,275.284,2973.248Z" fill="#ffb1bd"/><path d="M273.934,2994.745a2.329,2.329,0,0,0,.323.008l.1-.007c1.037.039,2.172,1.417,2.172,3.383,0,2.387-6.387,8.194-12.352,12.119a2.408,2.408,0,0,0-.2.149c-2.217,1.844-6.93,3.509-10.02,3.93a54.345,54.345,0,0,0-13.989-19.623Z" fill="#ffb1bd"/><path d="M176.668,2980.877a6.686,6.686,0,0,1-3.794-8.867,15.847,15.847,0,0,1,17.106-9.491c30.536,4.866,64.9,8,78.251,9.116a2.918,2.918,0,0,1,2.689,2.927v8.822a6.7,6.7,0,0,1-6.694,6.694H235.614a8.344,8.344,0,0,0-1.207.272A54.706,54.706,0,0,0,184.959,2984Z" fill="#fff"/><path d="M151.285,3019.187a9.273,9.273,0,0,1-1.043-3.168c-.448-3.3.85-6.95,3.858-10.86,3.782-4.916,4.86-8.764,3.3-11.762-1.472-2.822-4.815-3.7-7.124-3.963V2982.3c3.27-.29,5.71.429,7.431,2.184,4.057,4.137,3.378,13.476,2.69,17.293A55.158,55.158,0,0,0,151.285,3019.187Z" fill="#fff"/><path d="M155.017,3048.73a50.257,50.257,0,0,1,93.568-35.442l-9.946-2.854-.05-.014-23.75-6.815a38.666,38.666,0,0,0-44.346,18.031Z" fill="#fff"/><path d="M163.657,3055.275a16.7,16.7,0,0,1-1.716-8.289,2.233,2.233,0,0,0-.221-.955l12.664-22.172a34.2,34.2,0,0,1,39.218-15.946l23.185,6.653a42.546,42.546,0,0,1,9.534,36.18h-8.93a33.934,33.934,0,1,0-65.736.285,65.908,65.908,0,0,0-7.777,4.775C163.8,3055.624,163.729,3055.446,163.657,3055.275Z"/><path d="M204.488,3025.654a16.746,16.746,0,0,0-14.539,25.092H176.232a29.454,29.454,0,1,1,56.515,0h-13.72a16.745,16.745,0,0,0-14.539-25.092Z" fill="#ffb1bd"/><path d="M216.775,3042.422a12.234,12.234,0,0,1-3.257,8.324h-18.06a12.284,12.284,0,1,1,21.317-8.324Z" fill="#fff"/><path d="M204.488,3085.082a42.438,42.438,0,0,1-36.323-20.28h10.814a33.928,33.928,0,0,0,51.014,0h10.818A42.436,42.436,0,0,1,204.488,3085.082Z"/><path d="M185.355,3064.8h38.269a29.416,29.416,0,0,1-38.269,0Z" fill="#ffb1bd"/><path d="M312.45,3060.32H165.214c3.706-2.483,6.911-4.552,7.977-5.092H312.45a17.591,17.591,0,0,0,13.244-5.937c1.416.569,2.852,1.1,4.32,1.557A20.865,20.865,0,0,1,312.45,3060.32Z" fill="#fff"/><path d="M575.795,2995.242A53.819,53.819,0,0,1,522.036,3049H487.2a49.169,49.169,0,1,0-97.6,0H347.347a53.8,53.8,0,0,1-47.7-29.018,2.215,2.215,0,0,0,.488-1.386,2.24,2.24,0,0,0-2.213-2.233A53.286,53.286,0,0,1,294.672,3006a2.234,2.234,0,0,0-.457-2.555,53.934,53.934,0,0,1-.627-8.208v-30.073H575.795Z" fill="#ffb1bd"/><path d="M582.488,2960.687h-3.26a2.222,2.222,0,0,0-1.193-.35H291.347a2.221,2.221,0,0,0-1.192.35h-.689v-8.567H582.488Z" fill="#fff"/><path d="M503.072,3003.029a31.12,31.12,0,0,0,2.532,6.893,58.268,58.268,0,0,0,5.308,8.768c8.346,11.361,18.1,15.7,18.514,15.878a1.1,1.1,0,0,0,.446.094,1.121,1.121,0,0,0,1.028-.673l1.71-3.924a1.122,1.122,0,0,0-.577-1.473c-.127-.057-12.839-5.825-20.559-21.511,5.282,1.158,9.768.8,12.794-1.064a7.287,7.287,0,0,0,3.5-4.881c.524-2.9-1.267-8.467-8.3-11.068-2.928-1.082-10.3-1.851-14.381,2.677a9.107,9.107,0,0,0-1.178,1.636,70.978,70.978,0,0,1-8.17-14.322,1.119,1.119,0,0,0-1.464-.6l-3.953,1.641a1.122,1.122,0,0,0-.605,1.464C490.69,2984.909,495.865,2996.8,503.072,3003.029Zm6.125-3.556a3.475,3.475,0,0,1,.728-2.36c1.52-1.684,5.577-1.558,7.279-.928a8.752,8.752,0,0,1,3.682,2.678h0a1.764,1.764,0,0,1,.468,1.114c-.015.08-.16.276-.5.484-.5.305-3.323,1.725-10.139-.308A7.047,7.047,0,0,1,509.2,2999.473Z"/><path d="M326.951,3032.667c9.662,6.883,21.864,11.2,30.06,12.95a1.09,1.09,0,0,0,.234.025,1.12,1.12,0,0,0,1.1-.887l.738-3.46a1.12,1.12,0,0,0-.862-1.329c-7.63-1.627-18.97-5.636-27.913-12.005-9.838-7.008-14.046-14.776-12.508-23.089,1.294-6.994,4.195-11.324,8.62-12.869a14.455,14.455,0,0,1,6.309-.511,27.136,27.136,0,0,0,1.785,7.319c4.216,10.859,14.154,19.844,21.256,19.224,1.7-.149,5.8-1.147,7-7.182.828-4.153-2.257-9.63-8.464-15.028a45.3,45.3,0,0,0-15.671-8.938,12.476,12.476,0,0,1,4.933-7.8c11.527-8.839,26.733-4.049,42.835,1.022,15.677,4.938,31.886,10.044,47.15,3.853a1.122,1.122,0,0,0,.617-1.46l-1.329-3.278a1.123,1.123,0,0,0-1.46-.617c-13.338,5.41-28.542.621-43.243-4.009-17.575-5.536-34.175-10.764-48.086-.1a18.358,18.358,0,0,0-7.069,11.2,19.435,19.435,0,0,0-8.472.851c-6.526,2.279-10.7,8.091-12.4,17.273C310.159,3014.386,315.289,3024.361,326.951,3032.667Zm23.562-32.483c5.273,4.586,6.84,8.285,6.59,9.539-.486,2.438-1.469,2.523-1.84,2.555-3.263.28-9.9-4.932-13.881-12.342h0a29.141,29.141,0,0,1-1.487-3.217,22.933,22.933,0,0,1-1.107-3.724A39.08,39.08,0,0,1,350.513,3000.184Z"/><g clip-path="url(#a)"><rect width="32.867" height="128.48" transform="translate(304.613 2732.51)" fill="#fff"/><rect width="32.867" height="128.48" transform="translate(362.13 2732.51)" fill="#fff"/><rect width="32.867" height="128.48" transform="translate(419.647 2732.51)" fill="#fff"/><rect width="32.867" height="128.48" transform="translate(475.671 2732.51)" fill="#fff"/><rect width="32.867" height="128.48" transform="translate(532.441 2732.51)" fill="#fff"/></g><g clip-path="url(#b)"><rect width="32.867" height="128.48" transform="translate(304.613 2732.51)" fill="#fff"/><rect width="32.867" height="128.48" transform="translate(362.13 2732.51)" fill="#fff"/><rect width="32.867" height="128.48" transform="translate(419.647 2732.51)" fill="#fff"/><rect width="32.867" height="128.48" transform="translate(475.671 2732.51)" fill="#fff"/><rect width="32.867" height="128.48" transform="translate(532.441 2732.51)" fill="#fff"/></g><circle cx="44.687" cy="44.687" r="44.687" transform="translate(393.714 2998.379)"/><circle cx="31.694" cy="31.694" r="31.694" transform="translate(406.708 3011.372)" fill="#ffb1bd"/><circle cx="19.236" cy="19.236" r="19.236" transform="translate(419.166 3023.83)" fill="#fff" stroke="#000" stroke-linecap="round" stroke-linejoin="round" stroke-width="8"/><path d="M479.328,2769.239c1.3-3.292,2.522-6.4,3.439-8.721l1.407-3.442-6.147.032c-.907,2.3-2.748,6.842-4.008,10.04-1.334,3.384-2.743,6.964-3.97,10.089-.543,1.384-1.051,2.678-1.5,3.827a15.58,15.58,0,0,0-1.885-.942,11.856,11.856,0,0,0-4.61-.937,6.687,6.687,0,0,0-2.966.712,7.428,7.428,0,0,0-2.261,1.746,7.983,7.983,0,0,0-1.456,2.387,7.653,7.653,0,0,0-.531,2.826,7.25,7.25,0,0,0,7.29,7.217,10.419,10.419,0,0,0,4.512-1.031,11.208,11.208,0,0,0,3.121-2.261,12.765,12.765,0,0,0,.85-.957c.526.432,1.059.851,1.6,1.224a13.116,13.116,0,0,0,5.6,2.193,16.718,16.718,0,0,0,5.031-.053,20.543,20.543,0,0,0,3.618-.911,15.48,15.48,0,0,0,1.526-.615l-2.481-5.139s-.351.166-.932.369a14.983,14.983,0,0,1-2.609.657,11,11,0,0,1-3.31.048,7.45,7.45,0,0,1-3.186-1.234c-.661-.46-1.388-1.073-2.18-1.744.57-1.461,1.285-3.284,2.075-5.3C476.587,2776.2,478,2772.622,479.328,2769.239Zm-13.637,17.543a5.532,5.532,0,0,1-1.53,1.121,4.7,4.7,0,0,1-2.061.464,1.543,1.543,0,0,1-1.555-1.54,1.983,1.983,0,0,1,.141-.722,2.305,2.305,0,0,1,.415-.682,1.8,1.8,0,0,1,.526-.416,1.021,1.021,0,0,1,.455-.116,6.116,6.116,0,0,1,2.4.5,10.719,10.719,0,0,1,1.658.885C465.995,2786.457,465.845,2786.626,465.691,2786.782Zm-89.361-24.811a15.026,15.026,0,0,0-25.6,10.759,11.282,11.282,0,0,0,1.4,5.166c.268.52.563,1.026.874,1.521a9.32,9.32,0,0,0-2.133,1.535,8.36,8.36,0,0,0-2.018,3.057,8.584,8.584,0,0,0-.554,3.055,7.512,7.512,0,1,0,15.023-.077,8.234,8.234,0,0,0-.681-3.148,20.5,20.5,0,0,1,3.348.717,16.734,16.734,0,0,1,4.978,2.425,11.18,11.18,0,0,1,3.15,3.372,7.541,7.541,0,0,1,1.074,3.793l5.707-.03-.111-21.54a14.991,14.991,0,0,0-4.456-10.6Zm-18.852,25.747a1.818,1.818,0,0,1-.386.578,1.786,1.786,0,0,1-.572.39,1.828,1.828,0,0,1-1.4.007,1.791,1.791,0,0,1-.576-.384,1.811,1.811,0,0,1-.391-.572,1.785,1.785,0,0,1-.144-.7,2.773,2.773,0,0,1,.181-1,2.685,2.685,0,0,1,.652-.984,4.188,4.188,0,0,1,1.489-.881c.212.319.41.633.583.935a4.358,4.358,0,0,1,.7,1.909A1.789,1.789,0,0,1,357.478,2787.718Zm17.655-4.73q-.395-.32-.813-.624a22.417,22.417,0,0,0-6.668-3.266,26.788,26.788,0,0,0-7.964-1.142q-.391,0-.773.018a22.446,22.446,0,0,1-1.715-2.694,5.809,5.809,0,0,1-.767-2.579,9.335,9.335,0,0,1,5.651-8.621,9.4,9.4,0,0,1,7.256-.038,9.314,9.314,0,0,1,5.74,8.563Zm72.105,1.971c-.039.065-.079.129-.121.194s-.081.125-.124.188-.089.127-.13.184-.093.125-.14.186-.1.123-.145.181-.1.122-.149.176-.1.118-.16.176-.108.115-.164.171a7.709,7.709,0,0,1-1.2.991,7.571,7.571,0,0,1-2.744,1.134,7.685,7.685,0,0,1-7.89-3.269,7.645,7.645,0,0,1-.707-1.327,7.727,7.727,0,0,1-.428-1.417,7.85,7.85,0,0,1-.148-1.467,7.693,7.693,0,0,1,.081-1.154q.428.334.881.631a12.69,12.69,0,0,0,4.573,1.839,12.766,12.766,0,0,0,2.422.22,7.475,7.475,0,1,0-.073-14.95l-.285,0a13.352,13.352,0,0,0-6.675,1.821,7.14,7.14,0,0,1,.107-.863,6.968,6.968,0,0,1,1.007-2.508,7.1,7.1,0,0,1,.891-1.1,6.966,6.966,0,0,1,9.871-.051l4.015-4.055a12.735,12.735,0,0,0-2-1.614,12.672,12.672,0,0,0-4.571-1.837,12.719,12.719,0,0,0-7.189.734,12.685,12.685,0,0,0-7.635,9.376,12.719,12.719,0,0,0,.609,6.873,13.3,13.3,0,0,0-1.506,4.114,13.408,13.408,0,0,0,.026,5.1,13.331,13.331,0,0,0,3.707,6.886,13.487,13.487,0,0,0,2.1,1.7,13.32,13.32,0,0,0,4.819,1.936,13.409,13.409,0,0,0,5.1-.026,13.324,13.324,0,0,0,4.8-1.985,13.466,13.466,0,0,0,2.088-1.723q.144-.145.283-.295c.092-.1.183-.2.276-.3s.175-.2.262-.308.168-.207.249-.312.162-.211.244-.324.154-.215.227-.322.15-.222.22-.332.141-.224.209-.337Zm-10.832-10.322a7.673,7.673,0,0,1,1.326-.707,7.6,7.6,0,0,1,1.418-.428,7.745,7.745,0,0,1,1.466-.148h.285a1.751,1.751,0,0,1,.689.134,1.78,1.78,0,0,1,.948.939,1.766,1.766,0,0,1-1.622,2.463,6.951,6.951,0,0,1-3.845-1.129,7.056,7.056,0,0,1-1.055-.845C436.143,2774.818,436.274,2774.725,436.406,2774.637Zm-18.526-11.9a19.174,19.174,0,0,0-6.019-3.9,18.808,18.808,0,0,0-7.249-1.409,36.434,36.434,0,0,0-6.576.671,48.337,48.337,0,0,0-5.986,1.551,49.938,49.938,0,0,0-4.915,1.9,27.729,27.729,0,0,0-3.424,1.8l3.08,4.8a22.836,22.836,0,0,1,2.692-1.4,44.078,44.078,0,0,1,4.341-1.674c.176-.058.351-.108.526-.163l.033,6.434a11.292,11.292,0,0,0-1.906.591,11.5,11.5,0,0,0-3.711,18.819,11.163,11.163,0,0,0,3.942,2.473,17.852,17.852,0,0,0,4.26.986,36.626,36.626,0,0,0,4.144.221h.8c.521,0,1.034-.01,1.536-.017.463-.006.916-.012,1.356-.014a18.815,18.815,0,0,0,7.234-1.484,19.163,19.163,0,0,0,5.979-3.964,18.63,18.63,0,0,0,4.088-5.887,17.827,17.827,0,0,0-.075-14.485A18.6,18.6,0,0,0,417.88,2762.736ZM391.5,2784.784a5.786,5.786,0,0,1,2.917-7.464l.054,10.455a5.259,5.259,0,0,1-1.687-1.08A5.737,5.737,0,0,1,391.5,2784.784Zm25.378-4a12.924,12.924,0,0,1-2.843,4.088,13.49,13.49,0,0,1-4.207,2.789,13.151,13.151,0,0,1-5.052,1.037c-.455,0-.924.009-1.4.015-.722.01-1.47.02-2.226.017-.338,0-.658-.007-.964-.015l-.056-10.93a5.861,5.861,0,0,1,.818.671l2.758,2.729,4.014-4.056-2.757-2.729a11.44,11.44,0,0,0-3.821-2.507c-.342-.137-.691-.257-1.044-.359l-.041-7.988a29.9,29.9,0,0,1,4.592-.411,13.146,13.146,0,0,1,5.063.986,13.5,13.5,0,0,1,4.235,2.746,12.926,12.926,0,0,1,2.884,4.058,12.123,12.123,0,0,1,.051,9.859ZM523.7,2793.79a16.9,16.9,0,0,1-9.742-2.726,18.364,18.364,0,1,1,3.239-28.659l-3.9,3.942a7.143,7.143,0,0,1,1.237-.114c4.445-.023,8.082,4.071,8.108,9.126a18.216,18.216,0,0,1-4.075,11.631,12,12,0,0,0,5.1.992ZM504.217,2762.9a12.55,12.55,0,1,0,5.516,23.862,20.821,20.821,0,0,1-3.215-11.323c-.023-4.453,2.764-8.189,6.466-9.032A12.462,12.462,0,0,0,504.217,2762.9Zm10.345,9.138c-1.066,0-2.246,1.391-2.235,3.371a16.149,16.149,0,0,0,1.948,7.637,12.462,12.462,0,0,0,2.557-7.66C516.822,2773.409,515.628,2772.035,514.562,2772.041Z" fill="#010101"/><path d="M387.4,2812.854l2.224-.012.051,9.964-2.224.011-.02-3.92-3.962.021.02,3.919-2.224.012-.051-9.964,2.224-.011.021,4.162,3.962-.02Z" fill="#010101"/><path d="M406.1,2812.758l.01,1.981-4.961.026.011,2.052,4.461-.023.01,1.9-4.461.023.01,2.067,5.117-.027.01,1.967-7.34.038-.051-9.963Z" fill="#010101"/><path d="M415.132,2822.675l-.051-9.963,2.224-.011.041,7.982,4.247-.022.01,1.981Z" fill="#010101"/><path d="M437.168,2822.562l-.937-2.147-4.177.021-.915,2.157-2.366.012,4.253-9.985,2.153-.011,4.355,9.941Zm-3.043-6.983-1.24,2.9,2.495-.013Z" fill="#010101"/><path d="M455.1,2813.811a4.671,4.671,0,0,1,1.444,3.621,4.9,4.9,0,0,1-1.371,3.684,5.862,5.862,0,0,1-4.233,1.376l-3.407.017-.051-9.963,3.521-.018A5.855,5.855,0,0,1,455.1,2813.811Zm-1.6,5.931a2.925,2.925,0,0,0,.808-2.242,2.993,2.993,0,0,0-.831-2.255,3.5,3.5,0,0,0-2.52-.778l-1.24.006.031,6.058,1.411-.007A3.3,3.3,0,0,0,453.5,2819.742Z" fill="#010101"/><path d="M473.707,2821a5.429,5.429,0,0,1-7.44.038,5.214,5.214,0,0,1-.038-7.341,5.43,5.43,0,0,1,7.441-.038,5.215,5.215,0,0,1,.037,7.341Zm-.774-3.66a3.266,3.266,0,0,0-.867-2.269,2.82,2.82,0,0,0-4.205.022,3.442,3.442,0,0,0,.023,4.54,2.836,2.836,0,0,0,4.2-.022A3.237,3.237,0,0,0,472.933,2817.34Z" fill="#010101"/><path d="M486.152,2814.336a.859.859,0,0,0-.317.7.79.79,0,0,0,.4.69,7.224,7.224,0,0,0,1.814.6,5.1,5.1,0,0,1,2.207,1.037,2.588,2.588,0,0,1,.795,2.034,2.691,2.691,0,0,1-.994,2.178,4,4,0,0,1-2.64.848,6.122,6.122,0,0,1-4.271-1.731l1.318-1.632a4.719,4.719,0,0,0,2.986,1.4,1.565,1.565,0,0,0,.961-.269.847.847,0,0,0,.345-.714.829.829,0,0,0-.374-.711,4.823,4.823,0,0,0-1.471-.527,6.391,6.391,0,0,1-2.55-1.063,2.543,2.543,0,0,1-.816-2.077,2.577,2.577,0,0,1,1.008-2.193,4.1,4.1,0,0,1,2.541-.783,6.123,6.123,0,0,1,2,.332,5.373,5.373,0,0,1,1.744.96l-1.118,1.631a4.385,4.385,0,0,0-2.685-.97A1.34,1.34,0,0,0,486.152,2814.336Z" fill="#010101"/></g></svg>