<svg xmlns="http://www.w3.org/2000/svg" width="119.208" height="32.868" viewBox="0 0 119.208 32.868"><g transform="translate(-264.401 -2293.884)"><path d="M293.151,2311.7a2.582,2.582,0,0,0-2.627-2.607c-1.429,0-2.858,0-4.288,0-1.081,0-2.163,0-3.245,0l-1.081,0a2.321,2.321,0,0,0-2.3,2.83,2.216,2.216,0,0,0,2.065,1.719c.285.015.572.014.857.014q2.514,0,5.029,0c.479,0,.511.037.512.51,0,1.663-.005,3.326.005,4.989a.608.608,0,0,1-.32.61c-.079.043-.149.1-.226.152a12.52,12.52,0,0,1-9.484,1.734,9.574,9.574,0,0,1-7.089-5.816,12.314,12.314,0,0,1-.893-6.668,11.137,11.137,0,0,1,2.194-5.424,9.671,9.671,0,0,1,7.244-3.97,12.575,12.575,0,0,1,3.366.263,11.879,11.879,0,0,1,4.644,2.109,5.692,5.692,0,0,0,.732.441,2.2,2.2,0,0,0,1.519.164,2.647,2.647,0,0,0,1-4.718,14.914,14.914,0,0,0-5.2-2.5,20.842,20.842,0,0,0-6.373-.575,15.632,15.632,0,0,0-4.046.752,15.2,15.2,0,0,0-7.751,5.688,15.68,15.68,0,0,0-2.922,7.984,18.284,18.284,0,0,0,.116,4.081,15.913,15.913,0,0,0,1.9,5.689,14.445,14.445,0,0,0,5.806,5.667,16.707,16.707,0,0,0,7.084,1.9,18.056,18.056,0,0,0,3.651-.16,19.9,19.9,0,0,0,4.177-1.062,19.606,19.606,0,0,0,4.464-2.361,3.47,3.47,0,0,0,1.487-2.863c.011-.363,0-.727,0-1.091C293.154,2316.69,293.158,2314.2,293.151,2311.7Z"/><path d="M327.024,2304.592a12.468,12.468,0,0,0-8.013-1.991,12.123,12.123,0,0,0-11.364,11.869,10.812,10.812,0,0,0,.212,2.478,11.54,11.54,0,0,0,4.416,7.246,12.322,12.322,0,0,0,7.65,2.542,12,12,0,0,0,2.515-.234,12.056,12.056,0,0,0,9.732-14.018A11.329,11.329,0,0,0,327.024,2304.592Zm-.8,13.982a6.584,6.584,0,0,1-5.227,3.555,6.9,6.9,0,0,1-4.864-1.1,7.167,7.167,0,0,1-3.089-4.645c-.126-.579-.153-1.179-.226-1.77a7.99,7.99,0,0,1,1.71-5,6.6,6.6,0,0,1,4.531-2.457,7.088,7.088,0,0,1,3.331.365,6.91,6.91,0,0,1,4.319,4.46A8.033,8.033,0,0,1,326.221,2318.574Z"/><path d="M355.314,2302.989a2.408,2.408,0,0,0-2.632.361,3.133,3.133,0,0,0-.864,1.279l-1.468,3.733q-2.219,5.656-4.437,11.313c-.051.13-.117.253-.176.379l-.109.01c-.07-.147-.149-.29-.208-.441q-1.771-4.556-3.539-9.112-1.157-2.978-2.319-5.952a2.984,2.984,0,0,0-.889-1.259,2.621,2.621,0,0,0-1.948-.508,2.585,2.585,0,0,0-2.268,2.436,4.032,4.032,0,0,0,.431,1.644q1.607,3.7,3.224,7.391,2.158,4.943,4.319,9.887a6.7,6.7,0,0,0,.788,1.384,3.136,3.136,0,0,0,4.592.246,6.043,6.043,0,0,0,1.078-1.748l3.575-8.214q2.031-4.661,4.065-9.318a3.059,3.059,0,0,0,.258-1.442A2.254,2.254,0,0,0,355.314,2302.989Z"/><path d="M303.36,2296.4a2.393,2.393,0,0,0-1.515-2.261,2.561,2.561,0,0,0-3.654,2.375q.012,6.819,0,13.639,0,6.761,0,13.521a3.7,3.7,0,0,0,.056.774,2.6,2.6,0,0,0,5.018.115,3.978,3.978,0,0,0,.093-.963q.007-11.457,0-22.914C303.367,2299.259,303.387,2297.83,303.36,2296.4Z"/><path d="M383.573,2313.515a11.14,11.14,0,0,0-.993-3.864,11.628,11.628,0,0,0-5.8-5.9,12.8,12.8,0,0,0-8.024-.953,11.823,11.823,0,0,0-7.154,4.241,12.009,12.009,0,0,0-2.684,8.008,10.589,10.589,0,0,0,.6,3.528,12.022,12.022,0,0,0,10.926,8.151,13.009,13.009,0,0,0,3.292-.228,12.006,12.006,0,0,0,5.809-2.832A11.875,11.875,0,0,0,383.573,2313.515Zm-6.009,4.884a6.567,6.567,0,0,1-5.313,3.731,7.12,7.12,0,0,1-8.005-6.016c-.087-.51-.126-1.028-.158-1.295a8.16,8.16,0,0,1,1.734-5.272,6.527,6.527,0,0,1,3.716-2.273,7.2,7.2,0,0,1,4.425.366,6.8,6.8,0,0,1,3.722,3.644A8.057,8.057,0,0,1,377.564,2318.4Z"/></g></svg>