<svg xmlns="http://www.w3.org/2000/svg" width="16.245" height="15.887" viewBox="0 0 16.245 15.887"><path d="M871.327,3909.567a3.2,3.2,0,0,1-6.4-.016,3.2,3.2,0,0,1,6.4.016Zm4.917-4.224q0,4.219,0,8.438a3.6,3.6,0,0,1-3.665,3.713q-4.461.026-8.921,0a3.588,3.588,0,0,1-3.638-3.621q-.039-4.32,0-8.64a3.592,3.592,0,0,1,3.686-3.61c1.487-.005,2.974,0,4.461,0q2.169,0,4.339,0A3.608,3.608,0,0,1,876.244,3905.343Zm-3.129,4.231a4.985,4.985,0,1,0-5,4.958A4.978,4.978,0,0,0,873.115,3909.574Zm1.383-5.23a1.125,1.125,0,1,0-1.126,1.107A1.105,1.105,0,0,0,874.5,3904.344Z" transform="translate(-860 -3901.621)"/></svg>