<svg xmlns="http://www.w3.org/2000/svg" width="141.53" height="30" viewBox="0 0 141.53 30">
  <g id="Grupo_96" data-name="Grupo 96" transform="translate(-44.235 -45.632)">
    <g id="Grupo_95" data-name="Grupo 95">
      <path id="Trazado_110" data-name="Trazado 110" d="M150.057,55.49c1.06-2.652,2.062-5.154,2.811-7.024l1.15-2.772h-4.961c-.742,1.852-2.247,5.51-3.277,8.086-1.09,2.726-2.242,5.609-3.245,8.126-.444,1.115-.859,2.157-1.227,3.083a12.579,12.579,0,0,0-1.517-.768,9.559,9.559,0,0,0-3.717-.775,5.4,5.4,0,0,0-2.4.562,5.991,5.991,0,0,0-1.832,1.4,6.448,6.448,0,0,0-1.185,1.92,6.173,6.173,0,0,0-.44,2.279,5.85,5.85,0,0,0,5.854,5.854,8.422,8.422,0,0,0,3.645-.813,9.054,9.054,0,0,0,2.528-1.812q.362-.364.69-.769c.423.351.852.691,1.284.994a10.572,10.572,0,0,0,4.51,1.793,13.461,13.461,0,0,0,4.06-.022,16.513,16.513,0,0,0,2.924-.72,12.33,12.33,0,0,0,1.234-.49l-1.981-4.158s-.284.133-.754.294a12.034,12.034,0,0,1-2.108.52,8.894,8.894,0,0,1-2.672.025,6.035,6.035,0,0,1-2.566-1.009c-.531-.374-1.116-.872-1.752-1.417.466-1.176,1.051-2.645,1.7-4.265C147.816,61.1,148.967,58.214,150.057,55.49Zm-11.079,14.1a4.469,4.469,0,0,1-1.239.9,3.791,3.791,0,0,1-1.665.365,1.241,1.241,0,0,1-.883-.365,1.236,1.236,0,0,1-.366-.883,1.6,1.6,0,0,1,.117-.583,1.879,1.879,0,0,1,.337-.548,1.447,1.447,0,0,1,.426-.333.824.824,0,0,1,.369-.092,4.922,4.922,0,0,1,1.933.416,8.455,8.455,0,0,1,1.335.721C139.225,69.331,139.1,69.466,138.978,69.592ZM66.962,49.2a12.127,12.127,0,0,0-20.708,8.578,9.118,9.118,0,0,0,1.111,4.175c.214.42.45.83.7,1.23a7.525,7.525,0,0,0-1.728,1.231,6.756,6.756,0,0,0-1.641,2.458,6.906,6.906,0,0,0-.46,2.464,6.062,6.062,0,1,0,12.124,0,6.631,6.631,0,0,0-.535-2.543,16.419,16.419,0,0,1,2.7.592A13.518,13.518,0,0,1,62.53,69.36,9.035,9.035,0,0,1,65.058,72.1a6.087,6.087,0,0,1,.851,3.065h4.606V57.776A12.1,12.1,0,0,0,66.962,49.2ZM51.641,69.9a1.473,1.473,0,0,1-.777.778,1.473,1.473,0,0,1-1.133,0,1.436,1.436,0,0,1-.463-.313,1.477,1.477,0,0,1-.314-.463,1.46,1.46,0,0,1-.113-.567,2.265,2.265,0,0,1,.15-.805,2.166,2.166,0,0,1,.531-.791,3.36,3.36,0,0,1,1.205-.705c.169.258.328.512.466.757a3.507,3.507,0,0,1,.561,1.544A1.436,1.436,0,0,1,51.641,69.9Zm14.268-3.744q-.316-.259-.654-.507a18.075,18.075,0,0,0-5.367-2.663,21.607,21.607,0,0,0-6.423-.955q-.316,0-.624.012a18.339,18.339,0,0,1-1.373-2.182,4.693,4.693,0,0,1-.608-2.084,7.539,7.539,0,0,1,4.6-6.935,7.593,7.593,0,0,1,5.856,0,7.514,7.514,0,0,1,4.6,6.935Zm58.184,1.889c-.031.052-.064.1-.1.156s-.066.1-.1.151-.072.1-.106.148-.075.1-.114.15-.078.1-.117.145-.083.1-.121.141-.086.1-.13.142-.088.092-.133.137a6.2,6.2,0,0,1-.973.8,6.119,6.119,0,0,1-2.219.9,6.246,6.246,0,0,1-2.368,0,6.139,6.139,0,0,1-2.219-.9,6.265,6.265,0,0,1-1.767-1.767,6.111,6.111,0,0,1-.565-1.074,6.221,6.221,0,0,1-.453-2.329,6.326,6.326,0,0,1,.07-.932q.343.273.709.513a10.122,10.122,0,0,0,1.784.939,10.235,10.235,0,0,0,3.853.752,6.033,6.033,0,1,0,0-12.066h-.23a10.771,10.771,0,0,0-5.395,1.443,5.67,5.67,0,0,1,.4-1.739,5.517,5.517,0,0,1,.514-.977,5.707,5.707,0,0,1,1.609-1.609,5.552,5.552,0,0,1,.977-.514,5.632,5.632,0,0,1,1.043-.309,5.657,5.657,0,0,1,3.2.309,5.587,5.587,0,0,1,.977.514,5.656,5.656,0,0,1,.885.724l3.257-3.257a10.264,10.264,0,0,0-1.605-1.31,10.2,10.2,0,0,0-3.682-1.5,10.351,10.351,0,0,0-3.907,0,10.245,10.245,0,0,0-7.635,13.647,10.805,10.805,0,0,0-1.233,3.314,10.82,10.82,0,0,0,.593,6.12,10.707,10.707,0,0,0,.99,1.88,10.845,10.845,0,0,0,3.073,3.073,10.784,10.784,0,0,0,13.572-1.381c.078-.078.155-.157.23-.237s.148-.16.225-.246.141-.162.212-.247.136-.166.2-.25.132-.17.2-.261.125-.173.184-.259.122-.178.179-.267.115-.18.17-.271Zm-8.7-8.375a6.145,6.145,0,0,1,2.219-.9,6.266,6.266,0,0,1,1.184-.113h.23a1.41,1.41,0,0,1,.555.111,1.427,1.427,0,0,1-.557,2.743,5.713,5.713,0,0,1-1.077-.1,5.608,5.608,0,0,1-2.022-.824,5.733,5.733,0,0,1-.848-.686C115.181,59.814,115.287,59.739,115.394,59.669Zm-14.9-9.682a15.472,15.472,0,0,0-4.841-3.174,15.184,15.184,0,0,0-5.845-1.168,29.5,29.5,0,0,0-5.31.515,38.853,38.853,0,0,0-4.837,1.227A40.054,40.054,0,0,0,75.684,48.9a22.145,22.145,0,0,0-2.771,1.437l2.466,3.889A18.323,18.323,0,0,1,77.557,53.1a35.493,35.493,0,0,1,3.511-1.333c.142-.046.283-.086.425-.13v5.193a9.111,9.111,0,0,0-1.54.469,9.283,9.283,0,0,0-3.074,15.172,8.992,8.992,0,0,0,3.172,2.012,14.366,14.366,0,0,0,3.434.814,29.281,29.281,0,0,0,3.343.195q.324,0,.645,0c.419,0,.834,0,1.239-.007.374,0,.74-.007,1.094-.007a15.179,15.179,0,0,0,5.845-1.167,15.472,15.472,0,0,0,4.841-3.174,15.029,15.029,0,0,0,3.324-4.735,14.391,14.391,0,0,0,0-11.69A15.006,15.006,0,0,0,100.492,49.987ZM79.107,67.672a4.671,4.671,0,0,1,2.386-6.012V70.1a4.24,4.24,0,0,1-1.357-.879A4.645,4.645,0,0,1,79.107,67.672Zm20.5-3.127a10.458,10.458,0,0,1-2.312,3.287,10.867,10.867,0,0,1-3.407,2.234,10.613,10.613,0,0,1-4.081.816c-.367,0-.746,0-1.133.007-.583,0-1.187.01-1.8,0-.273,0-.531-.008-.778-.015V62.056a4.647,4.647,0,0,1,.658.544l2.214,2.214,3.256-3.256-2.214-2.214a9.237,9.237,0,0,0-3.073-2.04q-.414-.168-.841-.294V50.564a24.064,24.064,0,0,1,3.708-.313,10.6,10.6,0,0,1,4.081.816A10.89,10.89,0,0,1,97.294,53.3a10.439,10.439,0,0,1,2.311,3.287,9.783,9.783,0,0,1,0,7.957Zm86.159,10.942a13.649,13.649,0,0,1-7.852-2.24,14.82,14.82,0,1,1,2.734-23.116L177.481,53.3a5.8,5.8,0,0,1,1-.087c3.587,0,6.5,3.319,6.5,7.4a14.7,14.7,0,0,1-3.337,9.37,9.688,9.688,0,0,0,4.116.822Zm-15.6-25.008a10.129,10.129,0,1,0,4.352,19.281,16.81,16.81,0,0,1-2.547-9.152c0-3.594,2.264-6.6,5.256-7.262A10.06,10.06,0,0,0,170.17,50.479Zm8.311,7.418c-.86,0-1.819,1.113-1.819,2.711A13.042,13.042,0,0,0,178.2,66.78a10.055,10.055,0,0,0,2.1-6.172C180.3,59.01,179.341,57.9,178.481,57.9Z"/>
    </g>
  </g>
</svg>
