<svg xmlns="http://www.w3.org/2000/svg" width="201.996" height="132.344" viewBox="0 0 201.996 132.344"><g transform="translate(-547.425 -859.893)"><path d="M620.225,982.121a114.671,114.671,0,0,0,5.785-37.106c0-35.456-14.086-64.2-31.462-64.2s-31.461,28.743-31.461,64.2a114.671,114.671,0,0,0,5.785,37.106,126.89,126.89,0,0,1,51.353,0Z" fill="#fff"/><path d="M622.794,986.687l-3.392-.726a122.962,122.962,0,0,0-49.708,0l-3.392.726-1.139-3.276a118.531,118.531,0,0,1-6-38.4c0-38.2,15.544-68.126,35.388-68.126s35.389,29.925,35.389,68.126a118.531,118.531,0,0,1-6,38.4ZM594.548,975.57a128.632,128.632,0,0,1,23.021,2.022,113.451,113.451,0,0,0,4.514-32.577c0-16.561-3.13-32.069-8.814-43.667-5.172-10.553-11.995-16.605-18.721-16.605s-13.549,6.052-18.72,16.605c-5.684,11.6-8.814,27.106-8.814,43.667a113.451,113.451,0,0,0,4.514,32.577A128.621,128.621,0,0,1,594.548,975.57Z"/><path d="M550.881,992.237l-3.456-7.052c12.652-6.2,29.388-9.615,47.123-9.615a120.4,120.4,0,0,1,36.459,5.361l-2.412,7.474a112.494,112.494,0,0,0-34.047-4.982C577.987,983.423,562.479,986.553,550.881,992.237Z"/><path d="M660.094,982.121a114.672,114.672,0,0,1-5.785-37.106c0-35.456,14.086-64.2,31.461-64.2s31.462,28.743,31.462,64.2a114.672,114.672,0,0,1-5.785,37.106,126.89,126.89,0,0,0-51.353,0Z" fill="#fff"/><path d="M714.016,986.687l-3.392-.726a122.962,122.962,0,0,0-49.708,0l-3.392.726-1.139-3.276a118.522,118.522,0,0,1-6-38.4c0-38.2,15.544-68.126,35.388-68.126s35.389,29.925,35.389,68.126a118.531,118.531,0,0,1-6,38.4ZM685.77,884.743c-6.726,0-13.549,6.052-18.72,16.605-5.684,11.6-8.814,27.106-8.814,43.667a113.465,113.465,0,0,0,4.514,32.578,132.024,132.024,0,0,1,46.041,0,113.453,113.453,0,0,0,4.514-32.577c0-16.561-3.13-32.069-8.814-43.667C699.32,890.795,692.5,884.743,685.77,884.743Z"/><path d="M729.438,992.237c-11.6-5.684-27.106-8.814-43.668-8.814a112.5,112.5,0,0,0-34.047,4.982l-2.412-7.474a120.408,120.408,0,0,1,36.459-5.361c17.736,0,34.471,3.415,47.123,9.615Z"/><circle cx="4.194" cy="4.194" r="4.194" transform="translate(741.033 962.242)"/><path d="M617.045,860.061s.01.513.027,1.41c0,.224.007.473.012.744L617,863.2l-.1,1.127c-.031.4-.133.779-.2,1.2l-.252,1.295q-.194.657-.4,1.357l-.213.71c-.08.237-.184.468-.277.707l-.6,1.457a26.022,26.022,0,0,1-3.7,5.638,26.282,26.282,0,0,1-5.241,4.43l-1.426.8c-.236.128-.465.265-.7.379l-.711.313-1.375.593-1.333.435c-.431.128-.838.289-1.241.369l-1.143.247-1.011.211-.869.1-1.66.177v-7.854l1.149.035.611.024.715-.052.819-.053c.292-.01.584-.093.9-.137l.984-.165,1.03-.287.543-.146c.181-.057.355-.135.538-.2l1.117-.427a20.191,20.191,0,0,0,2.214-1.2,20.459,20.459,0,0,0,2.141-1.54,20.767,20.767,0,0,0,3.472-3.958c.214-.368.425-.731.63-1.086.1-.179.214-.352.3-.532l.247-.544.48-1.048.347-1.021c.1-.326.244-.65.3-.941l.2-.836q.1-.4.182-.743c.033-.267.063-.513.09-.735l.168-1.4Z"/><path d="M632.506,868.056s.009.512.026,1.409l.013.744c-.026.3-.053.633-.082.984l-.1,1.126c-.031.4-.133.779-.2,1.2s-.165.848-.253,1.295l-.4,1.357-.213.711c-.081.236-.184.467-.278.706l-.6,1.457a25.921,25.921,0,0,1-1.628,2.882,21.653,21.653,0,0,1-4.576,5.167,26.624,26.624,0,0,1-2.736,2.02l-1.426.8c-.236.127-.465.264-.7.378l-.712.313-1.374.594-1.333.434c-.431.128-.838.289-1.241.369l-1.143.247-1.012.211-.868.1-1.66.177v-7.853l1.149.035.611.023.714-.052.82-.053c.291-.01.583-.093.9-.137l.984-.165,1.03-.286.543-.147c.18-.056.355-.135.537-.2l1.118-.426a20.5,20.5,0,0,0,4.355-2.741,20.8,20.8,0,0,0,1.879-1.889,21.068,21.068,0,0,0,1.593-2.069l.63-1.087c.1-.179.214-.352.3-.532l.246-.544.481-1.048.347-1.021c.1-.326.244-.65.3-.941l.2-.836.183-.742c.032-.268.062-.514.089-.736.107-.89.169-1.4.169-1.4Z"/><path d="M640.555,880.9s.009.513.026,1.409l.012.745-.081.983-.1,1.127c-.031.4-.133.779-.2,1.2s-.166.847-.253,1.3l-.4,1.357q-.106.349-.214.71c-.08.237-.183.468-.277.707l-.6,1.457a22.883,22.883,0,0,1-6.2,8.048,26.332,26.332,0,0,1-2.736,2.02l-1.427.8c-.236.127-.465.265-.7.378l-.711.313-1.375.594-1.332.435c-.431.128-.839.288-1.241.369l-1.143.247-1.012.211-.869.1-1.659.177v-7.854l1.149.035.611.024.714-.053.819-.052c.292-.01.584-.093.9-.137l.984-.165,1.029-.287.543-.146c.181-.057.356-.136.538-.2l1.117-.427a20.359,20.359,0,0,0,4.356-2.741,20.772,20.772,0,0,0,1.878-1.888,21.065,21.065,0,0,0,1.594-2.07l.63-1.086c.1-.179.214-.352.3-.532l.246-.544.48-1.048c.121-.353.236-.694.348-1.021s.244-.65.3-.942.135-.573.2-.836l.182-.742c.033-.267.063-.513.09-.735l.168-1.4Z"/><path d="M708.267,860.061s.01.513.026,1.41l.013.744-.081.983q-.048.531-.1,1.127c-.031.4-.133.779-.2,1.2s-.165.848-.252,1.295q-.193.657-.4,1.357l-.213.71c-.08.237-.184.468-.277.707q-.293.714-.6,1.457a26.024,26.024,0,0,1-3.7,5.638,26.284,26.284,0,0,1-5.241,4.43l-1.426.8c-.236.128-.465.265-.7.379l-.711.313-1.375.593-1.333.435c-.431.128-.838.289-1.241.369l-1.143.247-1.011.211-.869.1-1.66.177v-7.854l1.149.035.611.024.714-.052.82-.053c.292-.01.584-.093.9-.137l.984-.165,1.03-.287.543-.146c.181-.057.355-.135.538-.2l1.117-.427a20.191,20.191,0,0,0,2.214-1.2,16.154,16.154,0,0,0,4.02-3.428,20.79,20.79,0,0,0,1.593-2.07l.63-1.086c.1-.179.214-.352.3-.532s.165-.365.246-.544q.247-.539.481-1.048l.347-1.021c.1-.326.244-.65.3-.941l.2-.836.182-.743.09-.735.168-1.4Z"/><path d="M723.728,868.056s.009.512.026,1.409q.006.337.012.744c-.025.3-.052.633-.081.984s-.066.73-.1,1.126-.133.779-.2,1.2-.165.848-.253,1.295l-.4,1.357-.213.711c-.081.236-.184.467-.278.706l-.6,1.457a22.921,22.921,0,0,1-6.2,8.049,26.624,26.624,0,0,1-2.736,2.02l-1.427.8c-.235.127-.464.264-.7.378l-.712.313-1.374.594-1.333.434c-.431.128-.838.289-1.241.369l-1.143.247-1.012.211-.868.1-1.66.177v-7.853l1.149.035.611.023.714-.052.82-.053c.291-.01.583-.093.9-.137l.984-.165,1.03-.286.543-.147c.18-.056.355-.135.537-.2l1.117-.426a20.472,20.472,0,0,0,2.215-1.2,16.1,16.1,0,0,0,4.02-3.428,21.059,21.059,0,0,0,1.593-2.069l.63-1.087c.1-.179.214-.352.3-.532l.246-.544.481-1.048.347-1.021c.1-.326.244-.65.3-.941s.135-.574.2-.836l.182-.742c.033-.268.063-.514.09-.736.107-.89.169-1.4.169-1.4Z"/><path d="M731.777,880.9s.009.513.026,1.409l.012.745-.081.983-.1,1.127c-.031.4-.133.779-.2,1.2s-.166.847-.253,1.3q-.194.657-.4,1.357l-.213.71c-.08.237-.183.468-.277.707l-.6,1.457a22.885,22.885,0,0,1-6.2,8.048,26.339,26.339,0,0,1-2.736,2.02l-1.427.8c-.236.127-.465.265-.7.378l-.711.313-1.375.594-1.332.435c-.431.128-.839.288-1.241.369l-1.143.247-1.012.211-.869.1-1.659.177v-7.854l1.149.035.611.024.714-.053.819-.052c.292-.01.584-.093.9-.137l.983-.165,1.03-.287.543-.146c.181-.057.356-.136.538-.2l1.117-.427a20.361,20.361,0,0,0,4.356-2.741,20.858,20.858,0,0,0,3.472-3.958l.63-1.086c.1-.179.214-.352.3-.532l.246-.544.48-1.048q.18-.53.348-1.021c.1-.326.244-.65.3-.942l.2-.836.182-.742c.033-.267.063-.513.09-.735l.168-1.4Z"/></g></svg>