<svg xmlns="http://www.w3.org/2000/svg" width="107.91" height="70.701" viewBox="0 0 107.91 70.701"><g transform="translate(-1434.34 -48.113)"><path d="M1474.6,115.849l-1.813-.388a65.73,65.73,0,0,0-26.555,0l-1.812.388-.608-1.75a63.318,63.318,0,0,1-3.207-20.512c0-20.408,8.3-36.394,18.905-36.394s18.9,15.986,18.9,36.394a63.318,63.318,0,0,1-3.207,20.512Zm-15.09-5.939a68.756,68.756,0,0,1,12.3,1.08,60.6,60.6,0,0,0,2.411-17.4c0-8.847-1.672-17.132-4.708-23.328-2.763-5.637-6.408-8.871-10-8.871s-7.238,3.234-10,8.871c-3.037,6.2-4.709,14.481-4.709,23.328a60.6,60.6,0,0,0,2.412,17.4A68.757,68.757,0,0,1,1459.514,109.91Z"/><path d="M1436.186,118.814l-1.846-3.767c6.759-3.313,15.7-5.137,25.174-5.137a64.324,64.324,0,0,1,19.477,2.864l-1.288,3.993a60.106,60.106,0,0,0-18.189-2.661C1450.666,114.106,1442.382,115.778,1436.186,118.814Z"/><path d="M1523.336,115.849l-1.812-.388a65.73,65.73,0,0,0-26.555,0l-1.812.388-.609-1.75a63.31,63.31,0,0,1-3.207-20.512c0-20.408,8.305-36.394,18.906-36.394s18.905,15.986,18.905,36.394a63.318,63.318,0,0,1-3.207,20.512Zm-15.089-54.461c-3.594,0-7.239,3.234-10,8.871-3.037,6.2-4.709,14.481-4.709,23.328a60.646,60.646,0,0,0,2.411,17.4,70.533,70.533,0,0,1,24.6,0,60.6,60.6,0,0,0,2.411-17.4c0-8.847-1.672-17.132-4.709-23.328C1515.485,64.622,1511.84,61.388,1508.247,61.388Z"/><path d="M1531.575,118.814c-6.2-3.036-14.481-4.708-23.328-4.708a60.1,60.1,0,0,0-18.189,2.661l-1.288-3.993a64.32,64.32,0,0,1,19.477-2.864c9.474,0,18.415,1.824,25.174,5.137Z"/><circle cx="2.24" cy="2.24" r="2.24" transform="translate(1537.769 102.79)"/><path d="M1471.532,48.2l.014.753.007.4-.043.525-.055.6c-.017.215-.071.416-.109.64l-.134.692-.214.725-.114.379c-.043.127-.1.25-.148.378l-.319.778a13.75,13.75,0,0,1-.869,1.54,13.152,13.152,0,0,1-3.906,3.839l-.763.427c-.126.068-.248.142-.374.2l-.38.167-.734.317-.712.232c-.231.069-.448.154-.663.2l-.611.132-.54.113-.464.054-.887.094V57.193l.614.019.326.012.382-.028.437-.028c.156-.005.312-.05.481-.073l.525-.088.551-.153.29-.078c.1-.031.19-.073.287-.109l.6-.228a10.813,10.813,0,0,0,1.183-.642,10.945,10.945,0,0,0,1.144-.822,11.375,11.375,0,0,0,1-1.009,10.975,10.975,0,0,0,.851-1.106l.337-.58c.054-.1.114-.188.162-.284l.132-.291.257-.56.185-.545c.055-.174.131-.348.162-.5l.1-.447.1-.4.048-.393.09-.748Z"/><path d="M1479.792,52.474l.014.753.006.4-.043.526-.055.6c-.016.215-.071.415-.108.64l-.135.692-.214.725-.113.379c-.043.127-.1.25-.149.378l-.318.778a13.924,13.924,0,0,1-.87,1.539,13.746,13.746,0,0,1-1.107,1.473,14,14,0,0,1-1.337,1.288,14.317,14.317,0,0,1-1.462,1.079l-.762.427c-.126.068-.249.141-.375.2l-.38.167-.734.318-.712.232c-.23.068-.448.154-.663.2l-.611.132-.54.113-.464.054-.887.094V61.464l.614.018.327.013.381-.028.438-.028c.156-.005.312-.05.48-.073l.526-.089.55-.153.29-.078c.1-.03.19-.072.287-.108l.6-.228a10.9,10.9,0,0,0,2.327-1.465,11.1,11.1,0,0,0,1-1.008,11.388,11.388,0,0,0,.851-1.106l.336-.58c.054-.1.115-.188.163-.285l.131-.29.257-.56.186-.545c.054-.175.13-.348.161-.5l.106-.447.1-.4.048-.393.09-.748Z"/><path d="M1484.091,59.336l.015.752.006.4-.043.525-.055.6c-.017.216-.071.416-.108.641l-.135.692-.214.724-.114.38c-.043.127-.1.25-.148.377l-.319.779A13.838,13.838,0,0,1,1481,68.218a14.021,14.021,0,0,1-1.338,1.288,14.3,14.3,0,0,1-1.461,1.079l-.762.427c-.126.068-.249.141-.375.2l-.38.167-.734.317-.712.233c-.23.068-.448.154-.663.2l-.611.132-.54.112-.464.055-.887.094v-4.2l.614.019.326.013.382-.028.438-.028c.156-.006.312-.05.48-.074l.526-.088.55-.153.29-.078c.1-.03.19-.072.287-.108l.6-.228a9.235,9.235,0,0,0,3.33-2.474,11.12,11.12,0,0,0,.852-1.1l.336-.58c.054-.1.114-.189.163-.285l.131-.29.257-.56.185-.546c.055-.174.131-.347.162-.5l.106-.447.1-.4.048-.393.09-.747Z"/><path d="M1520.265,48.2l.014.753.007.4-.044.525-.054.6c-.017.215-.072.416-.109.64s-.088.453-.135.692l-.213.725-.114.379c-.043.127-.1.25-.148.378-.1.254-.211.514-.319.778a13.876,13.876,0,0,1-1.976,3.012,14.075,14.075,0,0,1-2.8,2.367l-.762.427c-.126.068-.248.142-.374.2l-.38.167-.735.317-.712.232c-.23.069-.448.154-.663.2l-.61.132-.541.113-.464.054-.886.094V57.193l.613.019.327.012.381-.028.438-.028c.156-.005.312-.05.481-.073l.525-.088.55-.153.29-.078c.1-.031.19-.073.288-.109l.6-.228a10.954,10.954,0,0,0,2.327-1.464,11.094,11.094,0,0,0,1.855-2.115l.337-.58c.054-.1.114-.188.162-.284l.132-.291.256-.56.186-.545c.054-.174.13-.348.162-.5l.105-.447.1-.4.048-.393.09-.748Z"/><path d="M1528.524,52.474l.014.753.007.4-.043.526-.055.6c-.017.215-.071.415-.109.64s-.088.453-.134.692l-.214.725-.114.379c-.043.127-.1.25-.148.378l-.319.778a13.758,13.758,0,0,1-.869,1.539,11.579,11.579,0,0,1-2.445,2.761,14.3,14.3,0,0,1-1.461,1.079l-.763.427c-.126.068-.248.141-.374.2l-.38.167-.734.318-.712.232c-.231.068-.448.154-.663.2l-.611.132-.54.113-.464.054-.887.094V61.464l.614.018.326.013.382-.028.438-.028c.155-.005.311-.05.48-.073l.526-.089.55-.153.29-.078c.1-.03.19-.072.287-.108l.6-.228a10.906,10.906,0,0,0,2.327-1.465,11.139,11.139,0,0,0,1.855-2.114l.336-.58c.054-.1.114-.188.163-.285l.131-.29.257-.56.185-.545c.055-.175.131-.348.162-.5l.1-.447.1-.4.048-.393.09-.748Z"/><path d="M1532.824,59.336s.005.273.014.752l.007.4-.044.525-.054.6c-.017.216-.071.416-.109.641l-.135.692-.213.724-.114.38c-.043.127-.1.25-.148.377l-.319.779a13.828,13.828,0,0,1-.869,1.539,11.575,11.575,0,0,1-2.445,2.761,14.211,14.211,0,0,1-1.462,1.079l-.762.427c-.126.068-.248.141-.374.2l-.38.167-.735.317-.711.233c-.231.068-.448.154-.663.2l-.611.132-.54.112-.465.055-.886.094v-4.2l.614.019.326.013.382-.028.437-.028c.156-.006.312-.05.481-.074l.525-.088.55-.153.291-.078c.1-.03.189-.072.287-.108l.6-.228a9.265,9.265,0,0,0,3.33-2.474,11.109,11.109,0,0,0,.851-1.1l.337-.58c.054-.1.114-.189.162-.285l.132-.29.256-.56.186-.546c.055-.174.13-.347.162-.5l.1-.447.1-.4.048-.393.089-.747Z"/></g></svg>