<svg xmlns="http://www.w3.org/2000/svg" width="82.347" height="54.119" viewBox="0 0 82.347 54.119"><g transform="translate(-73.457 -59.291)"><path d="M103.981,113.41a61.271,61.271,0,0,0,3.09-19.823c0-18.941-7.525-34.3-16.807-34.3s-16.807,15.355-16.807,34.3a61.271,61.271,0,0,0,3.09,19.823,67.8,67.8,0,0,1,27.434,0Z" fill="#fff"/><path d="M102.72,113.119c2.654-3.877,4.394-10.342,4.394-17.667,0-11.862-4.559-21.478-10.182-21.478-3.268,0-6.174,3.251-8.037,8.3,3.089,0,8.037,5.831,8.037,13.179a10.387,10.387,0,0,0-9.748-6.207,43.975,43.975,0,0,0-.434,6.207c0,6.666,1.439,12.621,3.7,16.561.136,0,.271,0,.407,0A62.44,62.44,0,0,1,102.72,113.119Z"/><path d="M125.28,113.41a61.243,61.243,0,0,1-3.091-19.823c0-18.941,7.525-34.3,16.808-34.3S155.8,74.646,155.8,93.587a61.243,61.243,0,0,1-3.091,19.823,67.8,67.8,0,0,0-27.433,0Z" fill="#fff"/><path d="M151.41,113.119c2.654-3.877,4.394-10.342,4.394-17.667,0-11.862-4.559-21.478-10.182-21.478-3.268,0-6.174,3.251-8.037,8.3,3.089,0,8.037,5.831,8.037,13.179a10.388,10.388,0,0,0-9.749-6.207,43.977,43.977,0,0,0-.433,6.207c0,6.666,1.439,12.621,3.7,16.561.136,0,.271,0,.407,0A62.448,62.448,0,0,1,151.41,113.119Z"/></g></svg>