<svg xmlns="http://www.w3.org/2000/svg" width="129.261" height="73.275" viewBox="0 0 129.261 73.275"><g transform="translate(-587.971 -908.302)"><path d="M617.866,981.577c4.967-7.257,8.224-19.359,8.224-33.071,0-22.2-8.533-40.2-19.06-40.2-6.117,0-11.556,6.085-15.044,15.534,5.782.006,15.044,10.915,15.044,24.67a19.441,19.441,0,0,0-18.248-11.618,82.292,82.292,0,0,0-.811,11.618c0,12.477,2.694,23.626,6.922,31,.255,0,.507-.01.763-.01A116.924,116.924,0,0,1,617.866,981.577Z"/><path d="M709.007,981.577c4.968-7.257,8.225-19.359,8.225-33.071,0-22.2-8.534-40.2-19.06-40.2-6.117,0-11.557,6.085-15.044,15.534,5.782.006,15.044,10.915,15.044,24.67a19.443,19.443,0,0,0-18.248-11.618,82.288,82.288,0,0,0-.812,11.618c0,12.477,2.7,23.626,6.923,31,.255,0,.507-.01.762-.01A116.908,116.908,0,0,1,709.007,981.577Z"/></g></svg>