<svg xmlns="http://www.w3.org/2000/svg" width="165.408" height="165.407" viewBox="0 0 165.408 165.407"><g transform="translate(-1009.048 -1752.327)"><g fill="#fff" stroke-miterlimit="10"><path d="M 1091.787963867188 1913.734008789063 C 1084.9287109375 1913.734008789063 1078.061767578125 1912.826171875 1071.3779296875 1911.035766601563 C 1029.468994140625 1899.806030273438 1004.509338378906 1856.574584960938 1015.73828125 1814.665771484375 C 1024.94287109375 1780.316772460938 1056.179443359375 1756.327026367188 1091.699951171875 1756.327026367188 C 1098.5595703125 1756.327026367188 1105.425903320313 1757.23486328125 1112.108276367188 1759.025268554688 C 1117.255126953125 1760.404418945313 1122.262329101563 1762.304077148438 1126.991088867188 1764.67138671875 C 1131.600219726563 1766.978881835938 1135.999267578125 1769.757690429688 1140.066162109375 1772.9306640625 C 1144.057495117188 1776.044799804688 1147.7685546875 1779.569213867188 1151.096313476563 1783.406005859375 C 1154.391235351563 1787.205078125 1157.3388671875 1791.343017578125 1159.857299804688 1795.704956054688 C 1162.375732421875 1800.06689453125 1164.485595703125 1804.688598632813 1166.128295898438 1809.441528320313 C 1167.787231445313 1814.241821289063 1168.984008789063 1819.217895507813 1169.685302734375 1824.231567382813 C 1170.399780273438 1829.339965820313 1170.606689453125 1834.5390625 1170.300537109375 1839.684448242188 C 1169.986328125 1844.963256835938 1169.127807617188 1850.24951171875 1167.748657226563 1855.396240234375 C 1158.5439453125 1889.744750976563 1127.307739257813 1913.734008789063 1091.787963867188 1913.734008789063 Z" stroke="none"/><path d="M 1091.787963867188 1909.734008789063 C 1125.5009765625 1909.734008789063 1155.14794921875 1886.963989257813 1163.885009765625 1854.360961914063 C 1174.5439453125 1814.58203125 1150.85205078125 1773.547973632813 1111.072998046875 1762.889038085938 C 1104.72802734375 1761.18896484375 1098.2099609375 1760.327026367188 1091.699951171875 1760.327026367188 C 1057.985961914063 1760.327026367188 1028.338989257813 1783.097045898438 1019.601989746094 1815.701049804688 C 1008.943969726563 1855.47900390625 1032.634033203125 1896.512939453125 1072.412963867188 1907.171997070313 C 1078.759033203125 1908.871948242188 1085.276977539063 1909.734008789063 1091.787963867188 1909.734008789063 M 1091.787963867188 1917.734008789063 C 1084.579467773438 1917.734008789063 1077.3642578125 1916.780395507813 1070.343017578125 1914.899536132813 C 1026.303344726563 1903.098754882813 1000.074829101563 1857.669799804688 1011.874572753906 1813.630615234375 C 1021.546997070313 1777.535888671875 1054.372314453125 1752.327026367188 1091.699951171875 1752.327026367188 C 1098.908935546875 1752.327026367188 1106.123657226563 1753.28076171875 1113.143432617188 1755.16162109375 C 1134.446655273438 1760.869873046875 1152.266723632813 1774.55810546875 1163.321411132813 1793.704956054688 C 1174.376098632813 1812.851928710938 1177.320556640625 1835.128662109375 1171.612426757813 1856.431518554688 C 1161.939819335938 1892.525634765625 1129.114868164063 1917.734008789063 1091.787963867188 1917.734008789063 Z" stroke="none"/></g><path d="M1032.807,1837.393q-.116-2.9.059-5.835a58.948,58.948,0,0,1,.652-5.887,59.98,59.98,0,0,1,3.121-11.647,58.712,58.712,0,0,1,2.379-5.424" fill="#fff"/><path d="M1030.121,1837.5c-.081-2.026-.06-4.079.061-6.1.124-2.049.353-4.12.683-6.155a62.427,62.427,0,0,1,3.262-12.173,61.128,61.128,0,0,1,2.487-5.672l4.808,2.405a56.05,56.05,0,0,0-2.269,5.176,57.164,57.164,0,0,0-2.982,11.123c-.3,1.858-.509,3.748-.622,5.618-.111,1.846-.13,3.719-.056,5.567Z" fill="#010101"/><path d="M1150.621,1838.5a58.928,58.928,0,0,1-.652,5.886,59.953,59.953,0,0,1-3.121,11.648,58.713,58.713,0,0,1-2.379,5.424q-1.314,2.628-2.866,5.083" fill="#fff"/><path d="M1143.877,1867.979l-4.547-2.869c.989-1.567,1.909-3.2,2.735-4.85a55.738,55.738,0,0,0,2.269-5.176,56.687,56.687,0,0,0,1.772-5.487,57.429,57.429,0,0,0,1.21-5.637c.3-1.857.509-3.747.623-5.617l5.365.322a61.661,61.661,0,0,1-.681,6.155c-.335,2.063-.78,4.138-1.323,6.168a62.641,62.641,0,0,1-1.94,6.005,60.963,60.963,0,0,1-2.487,5.672C1145.969,1864.475,1144.961,1866.263,1143.877,1867.979Z" fill="#010101"/><path d="M1047.024,1790.547a3.513,3.513,0,0,1,2.833,1.081,3.355,3.355,0,0,1,1.341,2.693,5.418,5.418,0,0,1-1.607,3.123l-.915,1.023,2.143,1.917-1.534,1.714-7.682-6.873,2.428-2.714A5.3,5.3,0,0,1,1047.024,1790.547Zm1.9,3.963a1.982,1.982,0,0,0-.736-1.212,1.438,1.438,0,0,0-1.3-.445,2.968,2.968,0,0,0-1.4,1l-.875.978,2.583,2.311,1.033-1.154A2.052,2.052,0,0,0,1048.921,1794.51Z" fill="#010101"/><path d="M1058.3,1784.463a3.036,3.036,0,0,1,.39,3.734l4.316,1.336-2.247,1.724-3.815-1.219-1.265.969,2,2.61-1.826,1.4-6.273-8.181,3.1-2.378a5.61,5.61,0,0,1,3.215-1.443A3.132,3.132,0,0,1,1058.3,1784.463Zm-1.455,2.658a1.563,1.563,0,0,0-.4-1.226,1.3,1.3,0,0,0-1.046-.637,2.841,2.841,0,0,0-1.417.7l-1.369,1.051,1.857,2.422,1.334-1.023A2.482,2.482,0,0,0,1056.846,1787.121Z" fill="#010101"/><path d="M1071.274,1783.821a5.614,5.614,0,0,1-6.929,3.353,5.393,5.393,0,0,1-3.308-6.837,5.615,5.615,0,0,1,6.93-3.353,5.394,5.394,0,0,1,3.307,6.837Zm-2.353-3.072a3.381,3.381,0,0,0-1.822-1.732,2.918,2.918,0,0,0-3.916,1.9,3.559,3.559,0,0,0,2.045,4.228,2.932,2.932,0,0,0,3.917-1.894A3.353,3.353,0,0,0,1068.921,1780.749Z" fill="#010101"/><path d="M1080.317,1773.424a4.828,4.828,0,0,1,2.323,3.3,5.067,5.067,0,0,1-.493,4.038,6.073,6.073,0,0,1-3.93,2.4l-3.424.836-2.447-10.014,3.538-.865A6.056,6.056,0,0,1,1080.317,1773.424Zm-.187,6.353a3.021,3.021,0,0,0,.275-2.45,3.1,3.1,0,0,0-1.379-2.07,3.626,3.626,0,0,0-2.722-.177l-1.247.3,1.488,6.089,1.418-.347A3.4,3.4,0,0,0,1080.13,1779.777Z" fill="#010101"/><path d="M1088.125,1778.86a2.024,2.024,0,0,0,3.087-.113,3.062,3.062,0,0,0,.5-1.974l-.209-5.688,2.3-.085.212,5.762a4.577,4.577,0,0,1-1.112,3.487,4.784,4.784,0,0,1-6.345.226,4.567,4.567,0,0,1-1.371-3.388l-.212-5.763,2.3-.085.208,5.689A3.029,3.029,0,0,0,1088.125,1778.86Z" fill="#010101"/><path d="M1101.216,1780.212a3.393,3.393,0,0,0,2.952-.879l1.212,1.736a5.564,5.564,0,0,1-8.031-.829,5.448,5.448,0,0,1,1.254-7.521,5.291,5.291,0,0,1,4.038-.9,5.448,5.448,0,0,1,3.882,2.589l-1.673,1.372a3.346,3.346,0,0,0-2.46-1.775,3.154,3.154,0,0,0-2.327.48,2.955,2.955,0,0,0-1.277,2.108,3.118,3.118,0,0,0,.489,2.418A2.871,2.871,0,0,0,1101.216,1780.212Z" fill="#010101"/><path d="M1113.4,1777.019l-2.756,7.847-2.171-.762,2.756-7.848-2.755-.968.66-1.878,7.681,2.7-.659,1.879Z" fill="#010101"/><path d="M1122.625,1789.324a5.617,5.617,0,0,1-6.666-3.85,5.393,5.393,0,0,1,3.8-6.577,5.615,5.615,0,0,1,6.666,3.85,5.394,5.394,0,0,1-3.8,6.577Zm1.219-3.673a3.375,3.375,0,0,0,.41-2.48,2.919,2.919,0,0,0-3.768-2.176,3.562,3.562,0,0,0-2.349,4.068,2.934,2.934,0,0,0,3.768,2.176A3.345,3.345,0,0,0,1123.844,1785.651Z" fill="#010101"/><path d="M1137.323,1790.165l2.807,3.089-7.631,6.932-1.488-1.638,6.179-5.612-1.319-1.452Z" fill="#010101"/><path d="M1136.1,1805.166a3.7,3.7,0,0,1-.581-3.466,7.618,7.618,0,0,1,6.436-4.33,4.25,4.25,0,0,1,3.573,5.311,7.613,7.613,0,0,1-6.437,4.33A3.705,3.705,0,0,1,1136.1,1805.166Zm5.637-5.623a6.634,6.634,0,0,0-4.136,2.783,1.694,1.694,0,0,0,1.7,2.52,6.626,6.626,0,0,0,4.137-2.782,1.7,1.7,0,0,0-1.7-2.521Z" fill="#010101"/><path d="M1140.81,1813.773a3.705,3.705,0,0,1,.059-3.514,7.617,7.617,0,0,1,7.116-3.089,4.251,4.251,0,0,1,2.548,5.872,7.62,7.62,0,0,1-7.116,3.089A3.708,3.708,0,0,1,1140.81,1813.773Zm6.566-4.506a6.628,6.628,0,0,0-4.573,1.985,1.694,1.694,0,0,0,1.21,2.787,6.621,6.621,0,0,0,4.572-1.985,1.695,1.695,0,0,0-1.209-2.787Z" fill="#010101"/><path d="M1155.29,1826.607l-11.619-5.086-.527-2.481,11.622,5.1Zm-8.149,1.881a1.961,1.961,0,0,1-1.564-.3,2.313,2.313,0,0,1-.639-3.046,2.049,2.049,0,0,1,2.87-.61,2.306,2.306,0,0,1,.647,3.045A1.985,1.985,0,0,1,1147.141,1828.488Zm-1.056-2.452a.547.547,0,0,0-.1.467.568.568,0,0,0,.287.391.753.753,0,0,0,.549.064.813.813,0,0,0,.49-.284.549.549,0,0,0-.181-.851.82.82,0,0,0-.563-.062A.784.784,0,0,0,1146.085,1826.036Zm5.749-4.485a1.958,1.958,0,0,1-1.564-.3,2.158,2.158,0,0,1-.908-1.4,2.136,2.136,0,0,1,.268-1.647,2.047,2.047,0,0,1,2.872-.61,2.3,2.3,0,0,1,.646,3.043A1.981,1.981,0,0,1,1151.834,1821.551Zm-1.056-2.452a.543.543,0,0,0-.1.467.566.566,0,0,0,.287.392.764.764,0,0,0,.548.064.816.816,0,0,0,.49-.285.551.551,0,0,0-.18-.851.813.813,0,0,0-.564-.061A.777.777,0,0,0,1150.778,1819.1Z" fill="#010101"/><path d="M1036.564,1853.62l.649,2.222-3.51,1.025a5.409,5.409,0,0,1-2.833-3.6,5.244,5.244,0,0,1,.374-4.081,5.45,5.45,0,0,1,7.327-2.11,5.223,5.223,0,0,1,2.535,3.209,5.606,5.606,0,0,1-.319,4.111l-1.992-.663a4.529,4.529,0,0,0,.442-1.458,3.41,3.41,0,0,0-.134-1.275,3.02,3.02,0,0,0-1.476-1.873,3.561,3.561,0,0,0-4.513,1.28,2.792,2.792,0,0,0-.266,2.221,3.96,3.96,0,0,0,1,1.782Z" fill="#010101"/><path d="M1037.162,1861.765a1.883,1.883,0,0,0,.083,1.7,1.858,1.858,0,0,0,1.347,1.035,3.061,3.061,0,0,0,1.995-.4l5.046-2.635,1.065,2.04-5.112,2.668a4.578,4.578,0,0,1-3.626.5,4.783,4.783,0,0,1-2.932-5.632,4.571,4.571,0,0,1,2.47-2.7l5.112-2.669,1.065,2.04-5.047,2.635A3.032,3.032,0,0,0,1037.162,1861.765Z" fill="#010101"/><path d="M1044.087,1877l1.146-2.137-2.691-3.381-2.339.637-1.525-1.916,10.84-2.934,1.387,1.743-5.294,9.9Zm3.729-6.943-3.151.848,1.607,2.02Z" fill="#010101"/><path d="M1055.732,1876.77l-5.569,6.179-1.709-1.541,5.569-6.178-2.168-1.955,1.333-1.479,6.046,5.451-1.333,1.479Z" fill="#010101"/><path d="M1066.528,1881.951l-1.1,1.73-4.333-2.751-1.138,1.793,3.9,2.474-1.051,1.656-3.9-2.474-1.146,1.806,4.47,2.837-1.091,1.719-6.411-4.072,5.525-8.7Z" fill="#010101"/><path d="M1075.214,1889.616l-4.565,4.321-1.287-.475-.65-6.245-2.247,6.088-2.159-.8,3.57-9.672,2.919,1.078.53,6.232,4.465-4.389,2.9,1.073-3.569,9.671-2.158-.8Z" fill="#010101"/><path d="M1086.505,1898.32l-.655-2.335-4.283-.573-1.246,2.08-2.426-.324,5.781-9.627,2.208.3,3.048,10.809Zm-2.124-7.59-1.684,2.8,2.559.343Z" fill="#010101"/><path d="M1091.416,1898.533l-.417-10.3,2.3-.093.335,8.252,4.391-.178.083,2.049Z" fill="#010101"/><path d="M1102.763,1889.045l1.5,8.182-2.263.414-1.5-8.182-2.873.526-.359-1.958,8.008-1.466.359,1.958Z" fill="#010101"/><path d="M1113.458,1883.655l.7,1.927-4.825,1.751.724,2,4.34-1.576.669,1.845-4.34,1.574.73,2.01,4.977-1.806.694,1.914-7.139,2.59-3.517-9.69Z" fill="#010101"/><path d="M1123.278,1887.7a3.4,3.4,0,0,0,1.715-2.559l2.04.566a5.563,5.563,0,0,1-6.717,4.478,5.082,5.082,0,0,1-3.249-2.5,5.136,5.136,0,0,1-.578-4.1,5.291,5.291,0,0,1,2.542-3.264,5.441,5.441,0,0,1,4.64-.478l-.414,2.122a3.358,3.358,0,0,0-3.028.2,3.167,3.167,0,0,0-1.487,1.853,2.957,2.957,0,0,0,.359,2.438,3.123,3.123,0,0,0,1.918,1.554A2.874,2.874,0,0,0,1123.278,1887.7Z" fill="#010101"/><path d="M1136,1878.633a5.617,5.617,0,0,1-5.737,5.133,5.394,5.394,0,0,1-5.064-5.66,5.615,5.615,0,0,1,5.737-5.134,5.394,5.394,0,0,1,5.064,5.661Zm-3.11-2.3a3.373,3.373,0,0,0-2.228-1.163,2.915,2.915,0,0,0-3.241,2.9,3.556,3.556,0,0,0,3.131,3.5,2.933,2.933,0,0,0,3.243-2.9A3.345,3.345,0,0,0,1132.89,1876.329Z" fill="#010101"/><path d="M1097.954,1830.872l-7.28-1.951-3.311,6.446,7.224,1.935-3.611,7.127-7.224-1.935-3.838,7.536-7.881-2.112,3.838-7.536-6.622-1.774-3.839,7.536-7.881-2.112,3.838-7.536-7.226-1.936,3.611-7.127,7.227,1.936,3.311-6.446-7.227-1.936,3.6-7.074,7.224,1.936,4.079-8,7.881,2.111-4.076,8,6.566,1.76,4.079-8,7.937,2.127-4.079,8,7.224,1.935Zm-18.472,2.383,3.255-6.461-6.566-1.759-3.311,6.446Z" fill="#010101"/><path d="M1110.443,1817.09l18.39,4.927-17.723,36.372-11.385-3.051,13.539-27.757-7.005-1.877Z" fill="#010101"/></g></svg>